<?xml version="1.0" encoding="UTF-8"?>
<svg version="1.1" viewBox="0 0 1600 1600" width="1280" height="1280" xmlns="http://www.w3.org/2000/svg">
<path transform="translate(331,511)" d="m0 0c10.8 9.32 20.7 19.6 30.8 29.6 1.89 1.89 3.78 3.78 5.67 5.67 4.1 4.09 8.19 8.19 12.3 12.3 6.09 6.09 12.2 12.2 18.3 18.3 10.2 10.2 20.5 20.5 30.7 30.7 10.1 10.1 20.3 20.3 30.4 30.4 0.631 0.631 1.26 1.26 1.91 1.91 3.21 3.21 6.41 6.41 9.62 9.62 22.7 22.7 45.4 45.4 68.1 68.1 22 22 44.1 44.1 66.1 66.1 0.68 0.68 1.36 1.36 2.06 2.06 6.83 6.83 13.7 13.7 20.5 20.5 13.9 13.9 27.8 27.8 41.7 41.7 0.639 0.639 1.28 1.28 1.94 1.94 42.7 42.7 85.3 85.3 128 128 3.03-1.36 5.13-2.88 7.47-5.22 1.01-1 1.01-1 2.04-2.03 1.1-1.11 1.1-1.11 2.22-2.24 0.787-0.786 1.57-1.57 2.38-2.38 2.66-2.66 5.31-5.32 7.96-7.98 1.91-1.92 3.83-3.83 5.74-5.75 4.17-4.18 8.34-8.36 12.5-12.5 6.2-6.22 12.4-12.4 18.6-18.6 10.4-10.5 20.9-20.9 31.3-31.4 14.9-14.9 29.8-29.9 44.7-44.8 5.98-5.99 12-12 18-18 0.665-0.666 1.33-1.33 2.01-2.02 15.8-15.8 31.7-31.7 47.5-47.6 0.693-0.694 1.39-1.39 2.1-2.1 16.2-16.2 32.3-32.4 48.5-48.6 1.04-1.04 1.04-1.04 2.1-2.11 3.5-3.51 7-7.02 10.5-10.5 0.692-0.694 1.38-1.39 2.1-2.1 1.4-1.4 2.79-2.8 4.19-4.2 23.1-23.1 46.2-46.2 69.3-69.4 3.26-3.26 6.52-6.53 9.78-9.79 0.642-0.642 1.28-1.28 1.95-1.95 10.3-10.3 20.7-20.7 31-31 10.4-10.4 20.8-20.8 31.1-31.2 6.17-6.17 12.3-12.4 18.5-18.5 4.12-4.13 8.24-8.26 12.4-12.4 2.35-2.35 4.7-4.7 7.04-7.06 2.53-2.54 5.06-5.07 7.6-7.6 1.08-1.09 1.08-1.09 2.18-2.21 10.2-10.1 22.6-16.2 37-16.8 13 0.0917 26.1 4.1 35.7 13.2 12.3 13.8 15.4 26.5 14.8 44.4-0.769 10.2-7.31 21-14.2 28.4h-2c-0.26 0.584-0.519 1.17-0.787 1.77-1.3 2.39-2.7 3.97-4.62 5.89-0.711 0.716-1.42 1.43-2.16 2.17-1.18 1.17-1.18 1.17-2.38 2.37-0.835 0.838-1.67 1.68-2.53 2.54-2.33 2.34-4.66 4.67-7 6.99-2.54 2.53-5.06 5.07-7.59 7.6-4.44 4.45-8.88 8.89-13.3 13.3-6.61 6.6-13.2 13.2-19.8 19.8-12.5 12.5-25 25-37.5 37.5-9.64 9.64-19.3 19.3-28.9 28.9-1.38 1.38-2.77 2.77-4.15 4.15-2.09 2.09-4.17 4.17-6.26 6.26-19.4 19.4-38.8 38.8-58.2 58.2-0.732 0.732-1.46 1.46-2.22 2.22-3.71 3.71-7.42 7.42-11.1 11.1-0.737 0.737-1.47 1.47-2.23 2.23-1.49 1.49-2.98 2.98-4.47 4.47-23.2 23.2-46.4 46.4-69.5 69.5-26 26-52 52.1-78.1 78.1-2.78 2.78-5.55 5.55-8.33 8.33-0.684 0.684-1.37 1.37-2.07 2.07-10.3 10.3-20.6 20.6-31 31-11.7 11.7-23.5 23.5-35.2 35.2-6.57 6.57-13.1 13.1-19.7 19.7-4.39 4.39-8.78 8.78-13.2 13.2-2.5 2.5-5 5-7.5 7.5-2.69 2.7-5.4 5.4-8.1 8.09-0.765 0.772-1.53 1.54-2.32 2.34-7.05 6.98-14.8 13.7-24.2 17.3-0.968 0.38-1.94 0.761-2.93 1.15-11.9 4.12-26.2 3.02-37.6-2.09-3.2-1.78-6.11-3.76-9-6-0.928-0.701-1.86-1.4-2.81-2.12-2.19-1.87-4.26-3.73-6.19-5.88v-2c-0.99-0.33-1.98-0.66-3-1-2.19-1.94-2.19-1.94-4-4v-2c-0.99-0.33-1.98-0.66-3-1-1.22-1.45-2.44-2.91-3.61-4.39-1.54-1.88-1.54-1.88-4.39-4.11-3.1-2.59-5.43-5.4-8-8.5-0.825-0.66-1.65-1.32-2.5-2-2.5-2-2.5-2-4.94-4.94-2.47-3.14-2.47-3.14-5.56-5.56-3.11-2.59-5.42-5.4-8-8.5-0.99-0.825-1.98-1.65-3-2.5-3.1-2.59-5.43-5.4-8-8.5-0.784-0.619-1.57-1.24-2.38-1.88-3.03-2.46-5.4-5.22-7.93-8.17-2.99-3.46-6.14-6.51-9.69-9.39-3.07-2.63-5.42-5.46-8-8.56-0.99-0.825-1.98-1.65-3-2.5-3.11-2.59-5.42-5.4-8-8.5-0.99-0.825-1.98-1.65-3-2.5-3.1-2.59-5.43-5.4-8-8.5-0.784-0.619-1.57-1.24-2.38-1.88-3.03-2.46-5.4-5.22-7.93-8.17-2.99-3.46-6.14-6.51-9.69-9.39-3.07-2.63-5.42-5.46-8-8.56-0.99-0.825-1.98-1.65-3-2.5-3.11-2.59-5.42-5.4-8-8.5-0.99-0.825-1.98-1.65-3-2.5-3.1-2.59-5.43-5.4-8-8.5-0.784-0.619-1.57-1.24-2.38-1.88-3.03-2.46-5.4-5.22-7.93-8.17-2.99-3.46-6.14-6.51-9.69-9.39-3.07-2.63-5.42-5.46-8-8.56-0.99-0.825-1.98-1.65-3-2.5-3.11-2.59-5.42-5.4-8-8.5-0.99-0.825-1.98-1.65-3-2.5-3.1-2.59-5.43-5.4-8-8.5-0.784-0.619-1.57-1.24-2.38-1.88-3.03-2.46-5.4-5.22-7.93-8.17-2.99-3.46-6.14-6.51-9.69-9.39-3.07-2.63-5.42-5.46-8-8.56-0.99-0.825-1.98-1.65-3-2.5-3.11-2.59-5.42-5.4-8-8.5-0.99-0.825-1.98-1.65-3-2.5-3.1-2.59-5.43-5.4-8-8.5-0.784-0.619-1.57-1.24-2.38-1.88-3.03-2.46-5.4-5.22-7.93-8.17-2.99-3.46-6.14-6.51-9.69-9.39-3.07-2.63-5.42-5.46-8-8.56-0.99-0.825-1.98-1.65-3-2.5-3.11-2.59-5.42-5.4-8-8.5-0.99-0.825-1.98-1.65-3-2.5-3.1-2.59-5.43-5.4-8-8.5-0.784-0.619-1.57-1.24-2.38-1.88-3.03-2.46-5.4-5.22-7.93-8.17-2.99-3.46-6.14-6.51-9.69-9.39-3.07-2.63-5.42-5.46-8-8.56-0.99-0.825-1.98-1.65-3-2.5-3.11-2.59-5.42-5.4-8-8.5-0.99-0.825-1.98-1.65-3-2.5-3.1-2.59-5.43-5.4-8-8.5-1.18-0.928-1.18-0.928-2.38-1.88-3.03-2.46-5.4-5.22-7.93-8.17-2.99-3.46-6.14-6.51-9.69-9.39-3.07-2.63-5.42-5.46-8-8.56-0.99-0.825-1.98-1.65-3-2.5-3.11-2.59-5.42-5.4-8-8.5-0.99-0.825-1.98-1.65-3-2.5-3.1-2.59-5.43-5.4-8-8.5-1.18-0.928-1.18-0.928-2.38-1.88-3.03-2.46-5.4-5.22-7.93-8.17-2.99-3.46-6.14-6.51-9.69-9.39-3.07-2.63-5.42-5.46-8-8.56-0.99-0.825-1.98-1.65-3-2.5-3.11-2.59-5.42-5.4-8-8.5-0.99-0.825-1.98-1.65-3-2.5-3.1-2.59-5.43-5.4-8-8.5-0.784-0.619-1.57-1.24-2.38-1.88-3.03-2.46-5.4-5.22-7.93-8.17-2.99-3.46-6.14-6.51-9.69-9.39-3.07-2.63-5.42-5.46-8-8.56-1.46-1.21-2.92-2.41-4.4-3.6-11-9.57-18.5-22.7-19.8-37.3-0.581-13.2 3.97-24.3 11.2-35.1h2c0.249-0.589 0.498-1.18 0.754-1.79 4.54-8.07 15.4-12.5 23.9-15 15.7-3.51 30.9 0.0303 43.4 9.79z" fill="#000002"/>
</svg>
