<?xml version="1.0" encoding="UTF-8"?>
<svg version="1.1" xmlns="http://www.w3.org/2000/svg" width="456" height="456">
<path d="M0 0 C1.31016083 -0.0076664 1.31016083 -0.0076664 2.64678955 -0.01548767 C5.53803328 -0.02940404 8.42903923 -0.02842555 11.3203125 -0.02612305 C13.32666106 -0.03000849 15.3330088 -0.03434284 17.33935547 -0.03910828 C21.54592556 -0.04657462 25.75241172 -0.04627593 29.95898438 -0.04101562 C35.35636481 -0.03521658 40.75340257 -0.05216054 46.15072632 -0.0753603 C50.29420997 -0.09007243 54.43761058 -0.09097285 58.58111572 -0.08785057 C60.57147908 -0.08836493 62.56184695 -0.09362397 64.55218506 -0.10366249 C67.33189354 -0.11596252 70.11092778 -0.10927438 72.890625 -0.09765625 C73.7166925 -0.10529999 74.54276001 -0.11294373 75.39385986 -0.12081909 C81.01453755 -0.06874255 81.01453755 -0.06874255 83.16183472 1.64301777 C84.97167293 3.94380181 84.74513619 5.57918346 84.6328125 8.4621582 C84.59220703 9.81374023 84.59220703 9.81374023 84.55078125 11.19262695 C84.51597656 11.87969727 84.48117187 12.56676758 84.4453125 13.2746582 C85.63084717 13.24847412 86.81638184 13.22229004 88.0378418 13.1953125 C92.44520116 13.10466799 96.8524785 13.04735732 101.26049805 13 C103.16656357 12.97488821 105.07253309 12.94079175 106.97827148 12.89746094 C109.72143248 12.83666076 112.46331836 12.80841575 115.20703125 12.78637695 C116.05617599 12.76057053 116.90532074 12.7347641 117.78019714 12.70817566 C122.13181969 12.70612256 123.91376633 12.87620016 127.50317383 15.56689453 C129.9640752 18.99792623 129.8502817 21.14397237 129.4453125 25.2746582 C130.4353125 25.6046582 131.4253125 25.9346582 132.4453125 26.2746582 C133.77646011 28.93695342 133.58710273 30.98063148 133.60644531 33.96191406 C133.61605286 35.15332504 133.6256604 36.34473602 133.63555908 37.57225037 C133.6419339 39.5112899 133.6419339 39.5112899 133.6484375 41.48950195 C133.65418883 42.82467145 133.65994656 44.15984093 133.66571045 45.49501038 C133.67621834 48.29518011 133.68206258 51.09532114 133.68554688 53.89550781 C133.69103551 57.48477193 133.71507173 61.07365743 133.74351883 64.6628027 C133.76213463 67.42087415 133.76735019 70.17885413 133.76888275 72.93698311 C133.77338502 74.90407317 133.79203528 76.87111429 133.81085205 78.83811951 C133.80785095 80.03268265 133.80484985 81.22724579 133.80175781 82.45800781 C133.80722626 84.03780678 133.80722626 84.03780678 133.81280518 85.64952087 C133.38978451 88.67131537 132.6888958 89.33688018 130.4453125 91.2746582 C130.00460044 93.90015814 130.00460044 93.90015814 130.07421875 96.8605957 C130.04811523 98.50415039 130.04811523 98.50415039 130.02148438 100.1809082 C130.01240063 102.48558369 130.00716589 104.79027769 130.00585938 107.0949707 C129.98716797 108.19325195 129.96847656 109.2915332 129.94921875 110.4230957 C129.94736572 111.42518066 129.9455127 112.42726563 129.94360352 113.4597168 C129.29579384 117.11931774 128.06036763 118.65227699 125.4453125 121.2746582 C122.61053467 121.87593079 122.61053467 121.87593079 119.29980469 121.84228516 C118.05882019 121.8419075 116.81783569 121.84152985 115.53924561 121.84114075 C114.19021599 121.81560957 112.84119666 121.78952962 111.4921875 121.76293945 C110.10786212 121.75360951 108.72352018 121.74649425 107.33917236 121.74150085 C103.70225132 121.7224445 100.06633476 121.67335799 96.42980957 121.61798096 C92.71636544 121.56675754 89.00275838 121.54398037 85.2890625 121.51879883 C78.00735543 121.46523576 70.72647491 121.37994217 63.4453125 121.2746582 C63.7274414 123.54669622 64.02134106 125.81727505 64.3203125 128.0871582 C64.56394531 129.98401367 64.56394531 129.98401367 64.8125 131.91918945 C65.24099703 135.39165137 65.24099703 135.39165137 67.4453125 138.2746582 C70.47575791 138.75432073 70.47575791 138.75432073 74.09814453 138.70703125 C74.78118652 138.7172229 75.46422852 138.72741455 76.16796875 138.73791504 C78.42976975 138.76815336 80.69114806 138.777327 82.953125 138.78637695 C84.51969828 138.8032157 86.08625798 138.82136485 87.65280151 138.84077454 C91.77915199 138.88836843 95.90544745 138.91811673 100.03198242 138.94421387 C104.2414843 138.9739723 108.45079636 139.02051869 112.66015625 139.06567383 C120.92178195 139.15181361 129.18342476 139.21911105 137.4453125 139.2746582 C137.22875 137.5730957 137.22875 137.5730957 137.0078125 135.8371582 C136.82005916 134.31635613 136.63257347 132.79552099 136.4453125 131.2746582 C136.34992188 130.53086914 136.25453125 129.78708008 136.15625 129.02075195 C135.55303574 124.06577769 135.35455659 119.26623324 135.4453125 114.2746582 C136.7653125 114.2746582 138.0853125 114.2746582 139.4453125 114.2746582 C139.31253906 113.69200195 139.17976562 113.1093457 139.04296875 112.5090332 C137.60419843 105.8297783 136.59186864 99.11770249 136.4453125 92.2746582 C137.4453125 91.2746582 137.4453125 91.2746582 140.4453125 91.1496582 C143.4453125 91.2746582 143.4453125 91.2746582 144.4453125 92.2746582 C144.8456955 95.12994428 145.1971352 97.97202307 145.5078125 100.8371582 C145.64413086 102.04662109 145.64413086 102.04662109 145.78320312 103.28051758 C146.00778699 105.27813197 146.22704486 107.27634381 146.4453125 109.2746582 C147.89212574 106.38103172 147.87773626 103.4663573 148.1640625 100.27075195 C148.4453125 98.2746582 148.4453125 98.2746582 149.4453125 97.2746582 C151.44489614 97.23385037 153.44576504 97.23211464 155.4453125 97.2746582 C156.52849912 101.35743854 156.28004435 104.45344655 155.5078125 108.5871582 C155.21583984 110.19010742 155.21583984 110.19010742 154.91796875 111.82543945 C154.76199219 112.63368164 154.60601562 113.44192383 154.4453125 114.2746582 C156.7553125 114.2746582 159.0653125 114.2746582 161.4453125 114.2746582 C161.80542387 122.77728789 160.6980842 130.88556202 159.4453125 139.2746582 C160.34894531 139.23985352 161.25257813 139.20504883 162.18359375 139.16918945 C163.36308594 139.14211914 164.54257812 139.11504883 165.7578125 139.0871582 C166.92957031 139.05235352 168.10132813 139.01754883 169.30859375 138.98168945 C172.4453125 139.2746582 172.4453125 139.2746582 174.37890625 140.62231445 C175.4453125 142.2746582 175.4453125 142.2746582 175.1953125 144.8996582 C174.4453125 147.2746582 174.4453125 147.2746582 173.4453125 148.2746582 C171.90328394 148.37247188 170.35676555 148.4002133 168.81163788 148.40049934 C167.80356221 148.40310709 166.79548654 148.40571484 165.75686312 148.40840161 C164.63597402 148.40617089 163.51508492 148.40394017 162.36022949 148.40164185 C161.179934 148.40320184 159.99963851 148.40476183 158.78357649 148.40636909 C155.49269165 148.40968235 152.20186337 148.40846992 148.91098189 148.40538287 C145.36765959 148.40313062 141.82434242 148.40660751 138.28102112 148.40936279 C131.33382965 148.41382137 124.38664896 148.41284364 117.43945706 148.40995015 C111.79589507 148.40769646 106.15233611 148.40738345 100.5087738 148.40847397 C99.30629103 148.40870382 99.30629103 148.40870382 98.07951567 148.40893831 C96.45122993 148.40925802 94.82294419 148.40958223 93.19465846 148.4099109 C77.90781617 148.41276595 62.62097988 148.40947828 47.33413857 148.40411054 C34.20273652 148.39964247 21.0713433 148.4004184 7.93994141 148.4050293 C-7.29028898 148.41037462 -22.52051411 148.41249126 -37.7507453 148.40941703 C-39.37321313 148.40909847 -40.99568097 148.4087841 -42.6181488 148.40847397 C-43.41654097 148.40831969 -44.21493314 148.40816542 -45.03751901 148.40800647 C-50.67764762 148.40714119 -56.31777291 148.40860443 -61.957901 148.41095352 C-68.82652791 148.41375126 -75.69514339 148.41301382 -82.56376898 148.40767278 C-86.0716678 148.4050354 -89.57954752 148.4040313 -93.08744621 148.40732193 C-96.8815099 148.4108273 -100.67554195 148.40665644 -104.46960449 148.40164185 C-105.59049359 148.40387257 -106.71138268 148.40610329 -107.86623812 148.40840161 C-108.87431379 148.40579386 -109.88238946 148.40318611 -110.92101288 148.40049934 C-111.79800449 148.40033699 -112.6749961 148.40017464 -113.57856321 148.40000737 C-115.5546875 148.2746582 -115.5546875 148.2746582 -116.5546875 147.2746582 C-116.7421875 144.3371582 -116.7421875 144.3371582 -116.5546875 141.2746582 C-114.07411122 138.79408192 -113.19276286 138.98446816 -109.765625 138.8605957 C-108.82460937 138.82192383 -107.88359375 138.78325195 -106.9140625 138.7434082 C-105.43679687 138.69700195 -105.43679687 138.69700195 -103.9296875 138.6496582 C-102.93710938 138.61098633 -101.94453125 138.57231445 -100.921875 138.5324707 C-98.46633365 138.43802681 -96.0108034 138.35245945 -93.5546875 138.2746582 C-93.5546875 135.9646582 -93.5546875 133.6546582 -93.5546875 131.2746582 C-94.5446875 131.2746582 -95.5346875 131.2746582 -96.5546875 131.2746582 C-96.5546875 129.9546582 -96.5546875 128.6346582 -96.5546875 127.2746582 C-97.18117188 127.29786133 -97.80765625 127.32106445 -98.453125 127.3449707 C-99.27039063 127.36301758 -100.08765625 127.38106445 -100.9296875 127.3996582 C-101.74179688 127.42286133 -102.55390625 127.44606445 -103.390625 127.4699707 C-105.5546875 127.2746582 -105.5546875 127.2746582 -107.5546875 125.2746582 C-107.75320852 122.5654302 -107.83308227 119.98162641 -107.8046875 117.2746582 C-107.81242187 116.53731445 -107.82015625 115.7999707 -107.828125 115.0402832 C-107.8080071 109.5279778 -107.8080071 109.5279778 -105.5546875 107.2746582 C-102.76251959 107.02896549 -100.06228145 106.90102683 -97.265625 106.8605957 C-96.44720123 106.84122955 -95.62877747 106.8218634 -94.78555298 106.8019104 C-92.16703774 106.74204738 -89.54847869 106.69570288 -86.9296875 106.6496582 C-85.15623064 106.61148456 -83.38279245 106.57243319 -81.609375 106.5324707 C-77.25796375 106.43634049 -72.90646571 106.3523347 -68.5546875 106.2746582 C-69.04904297 105.1714624 -69.54339844 104.0682666 -70.05273438 102.93164062 C-71.84832915 98.55969425 -71.63509366 96.67733254 -70.41796875 92.29418945 C-69.10353023 89.219236 -67.44204087 87.88620427 -64.5546875 86.2746582 C-60.44485842 85.18362935 -56.52362381 85.1595597 -52.28515625 85.17700195 C-51.60415359 85.1784169 -50.92315094 85.17983185 -50.22151184 85.18128967 C-48.06169103 85.18685522 -45.90197661 85.19940117 -43.7421875 85.2121582 C-42.27148588 85.21717766 -40.80078262 85.22173979 -39.33007812 85.22583008 C-35.7382471 85.23681332 -32.1464777 85.25405399 -28.5546875 85.2746582 C-28.56579056 84.43163147 -28.57689362 83.58860474 -28.58833313 82.72003174 C-28.68852521 74.7746492 -28.76464713 66.82947884 -28.81374836 58.88360977 C-28.83984077 54.79851582 -28.87523092 50.71394389 -28.93188477 46.62915039 C-28.98621939 42.68689599 -29.01611072 38.74514359 -29.02907372 34.80254364 C-29.0383112 33.29858242 -29.05635045 31.79464863 -29.08333778 30.29090118 C-29.11965139 28.18364653 -29.12463248 26.07846456 -29.12231445 23.97094727 C-29.13341751 22.77181702 -29.14452057 21.57268677 -29.15596008 20.33721924 C-28.5546875 17.2746582 -28.5546875 17.2746582 -26.21379089 14.8805542 C-22.96399456 12.91792464 -21.00587263 12.85922149 -17.2421875 13.0246582 C-16.17355469 13.06075195 -15.10492188 13.0968457 -14.00390625 13.1340332 C-12.79154297 13.20364258 -12.79154297 13.20364258 -11.5546875 13.2746582 C-11.60689453 12.11836914 -11.60689453 12.11836914 -11.66015625 10.9387207 C-11.68722656 9.93583008 -11.71429688 8.93293945 -11.7421875 7.8996582 C-11.79439453 6.40305664 -11.79439453 6.40305664 -11.84765625 4.8762207 C-11.70263672 3.58844727 -11.70263672 3.58844727 -11.5546875 2.2746582 C-7.68765247 -0.30336515 -4.48432004 -0.0134487 0 0 Z M-12.5546875 121.2746582 C-12.5546875 122.5946582 -12.5546875 123.9146582 -12.5546875 125.2746582 C-4.6346875 125.2746582 3.2853125 125.2746582 11.4453125 125.2746582 C11.4453125 127.2546582 11.4453125 129.2346582 11.4453125 131.2746582 C10.4553125 131.2746582 9.4653125 131.2746582 8.4453125 131.2746582 C8.4453125 133.5846582 8.4453125 135.8946582 8.4453125 138.2746582 C13.04353508 139.80739906 17.62800958 139.58206849 22.4453125 139.6496582 C23.4559375 139.68704102 24.4665625 139.72442383 25.5078125 139.76293945 C26.961875 139.7803418 26.961875 139.7803418 28.4453125 139.7980957 C29.775625 139.82782471 29.775625 139.82782471 31.1328125 139.8581543 C34.18309408 139.37774706 34.18309408 139.37774706 36.4453125 134.2746582 C36.9403125 127.8396582 36.9403125 127.8396582 37.4453125 121.2746582 C20.9453125 121.2746582 4.4453125 121.2746582 -12.5546875 121.2746582 Z " fill="#475A88" transform="translate(189.5546875,155.725341796875)"/>
<path d="M0 0 C30.36 0 60.72 0 92 0 C92 0.66 92 1.32 92 2 C105.53 2 119.06 2 133 2 C133 2.33 133 2.66 133 3 C120.13 3 107.26 3 94 3 C94 4.65 94 6.3 94 8 C105.88 8 117.76 8 130 8 C130 8.33 130 8.66 130 9 C117.79 9 105.58 9 93 9 C92.67 9.99 92.34 10.98 92 12 C91.37351562 12.03738281 90.74703125 12.07476562 90.1015625 12.11328125 C89.28429687 12.17902344 88.46703125 12.24476563 87.625 12.3125 C86.40683594 12.39951172 86.40683594 12.39951172 85.1640625 12.48828125 C82.62078662 12.82990528 82.62078662 12.82990528 81 16 C81.33 16 81.66 16 82 16 C82.0154612 17.08661171 82.0154612 17.08661171 82.03123474 18.19517517 C82.12904768 25.00851902 82.23153859 31.821778 82.33933926 38.63497066 C82.39459955 42.13804355 82.44802434 45.64112473 82.49731445 49.14428711 C82.55400668 53.16790144 82.61857401 57.19135531 82.68359375 61.21484375 C82.70030624 62.47836166 82.71701874 63.74187958 82.73423767 65.04368591 C82.7641555 66.78537804 82.7641555 66.78537804 82.79467773 68.56225586 C82.81799416 70.1044706 82.81799416 70.1044706 82.84178162 71.67784119 C82.74171871 73.96085353 82.74171871 73.96085353 84 75 C85.71318946 75.09881593 87.43044803 75.12798969 89.14648438 75.12939453 C90.24432251 75.13254669 91.34216064 75.13569885 92.4732666 75.13894653 C93.66802612 75.1369223 94.86278564 75.13489807 96.09375 75.1328125 C97.91924377 75.13424759 97.91924377 75.13424759 99.78161621 75.13571167 C102.36075899 75.13639372 104.93990347 75.13453772 107.51904297 75.13037109 C111.48278636 75.12502322 115.44641642 75.13031529 119.41015625 75.13671875 C121.90885442 75.13605797 124.40755252 75.13477682 126.90625 75.1328125 C128.69838928 75.13584885 128.69838928 75.13584885 130.5267334 75.13894653 C131.62457153 75.13579437 132.72240967 75.13264221 133.85351562 75.12939453 C134.8253479 75.12859894 135.79718018 75.12780334 136.79846191 75.12698364 C138.97542617 75.24631235 138.97542617 75.24631235 140 74 C140.12330088 72.1903226 140.17790183 70.37592163 140.20532227 68.56225586 C140.22526749 67.40112778 140.24521271 66.23999969 140.26576233 65.04368591 C140.28247482 63.780168 140.29918732 62.51665009 140.31640625 61.21484375 C140.3475779 59.28591026 140.3475779 59.28591026 140.37937927 57.31800842 C140.43466176 53.89364096 140.48404361 50.4692125 140.53222656 47.04473877 C140.58239665 43.55255686 140.6381061 40.0604639 140.69335938 36.56835938 C140.8010164 29.71231667 140.90244449 22.85619367 141 16 C141.66 15.67 142.32 15.34 143 15 C143.06948809 22.77116308 143.12280502 30.54225348 143.15543652 38.31364918 C143.1710975 41.92218303 143.19234315 45.53050444 143.22631836 49.13891602 C143.25889717 52.62078122 143.27684975 56.10244201 143.28463173 59.58444786 C143.29287856 61.56042097 143.31630038 63.53631175 143.33988953 65.51216125 C143.34022942 67.31368904 143.34022942 67.31368904 143.34057617 69.15161133 C143.35056892 70.74045891 143.35056892 70.74045891 143.36076355 72.36140442 C142.94574385 75.39682514 142.25404591 76.05744848 140 78 C139.55928794 80.62549994 139.55928794 80.62549994 139.62890625 83.5859375 C139.60280273 85.22949219 139.60280273 85.22949219 139.57617188 86.90625 C139.56708813 89.21092548 139.56185339 91.51561949 139.56054688 93.8203125 C139.54185547 94.91859375 139.52316406 96.016875 139.50390625 97.1484375 C139.50205322 98.15052246 139.5002002 99.15260742 139.49829102 100.18505859 C138.85048134 103.84465954 137.61505513 105.37761879 135 108 C132.16522217 108.60127258 132.16522217 108.60127258 128.85449219 108.56762695 C127.61350769 108.5672493 126.37252319 108.56687164 125.09393311 108.56648254 C123.74490349 108.54095137 122.39588416 108.51487142 121.046875 108.48828125 C119.66254962 108.47895131 118.27820768 108.47183604 116.89385986 108.46684265 C113.25693882 108.4477863 109.62102226 108.39869979 105.98449707 108.34332275 C102.27105294 108.29209934 98.55744588 108.26932217 94.84375 108.24414062 C87.56204293 108.19057756 80.28116241 108.10528397 73 108 C73 110.31 73 112.62 73 115 C72.34 115 71.68 115 71 115 C71 112.03 71 109.06 71 106 C71.78704819 105.98969254 72.57409637 105.97938507 73.38499451 105.96876526 C80.78698107 105.87095812 88.18888068 105.76846814 95.59072781 105.66066074 C99.39647405 105.60539706 103.20222792 105.55197171 107.00805664 105.50268555 C110.67799335 105.45509259 114.34783391 105.40275191 118.01765633 105.34705925 C119.42072227 105.32661263 120.8238146 105.30790343 122.2269268 105.29092598 C124.18576926 105.26693313 126.14452701 105.23629801 128.10327148 105.20532227 C129.22023911 105.18977798 130.33720673 105.1742337 131.48802185 105.15821838 C133.93861001 105.28180962 133.93861001 105.28180962 135 104 C135.15806531 102.07521187 135.251135 100.1450079 135.31640625 98.21484375 C135.35830078 97.04501953 135.40019531 95.87519531 135.44335938 94.66992188 C135.48267578 93.43822266 135.52199219 92.20652344 135.5625 90.9375 C135.60568359 89.70193359 135.64886719 88.46636719 135.69335938 87.19335938 C135.79984198 84.12902665 135.90185424 81.06460927 136 78 C134.35 78 132.7 78 131 78 C131 81.96 131 85.92 131 90 C84.14 90 37.28 90 -11 90 C-11 63.27 -11 36.54 -11 9 C-10.67 9 -10.34 9 -10 9 C-10 35.07 -10 61.14 -10 88 C35.87 88 81.74 88 129 88 C129 84.37 129 80.74 129 77 C126.88005615 77.01571045 126.88005615 77.01571045 124.71728516 77.03173828 C119.48798136 77.06786074 114.25868866 77.09087217 109.02929688 77.10986328 C106.76332751 77.11993859 104.49737119 77.13359918 102.23144531 77.15087891 C98.97978499 77.17506011 95.72829613 77.18646763 92.4765625 77.1953125 C90.94994492 77.21079636 90.94994492 77.21079636 89.39248657 77.22659302 C87.98125015 77.22681961 87.98125015 77.22681961 86.54150391 77.22705078 C85.29574081 77.23371262 85.29574081 77.23371262 84.02481079 77.24050903 C82 77 82 77 80 75 C79.5859375 72.3984375 79.5859375 72.3984375 79.375 69.375 C79.30023438 68.37210937 79.22546875 67.36921875 79.1484375 66.3359375 C79.09945312 65.56507813 79.05046875 64.79421875 79 64 C75.52929845 62.84309948 72.40195222 62.83248133 68.79052734 62.81054688 C68.06017776 62.80225357 67.32982819 62.79396027 66.5773468 62.78541565 C64.99281341 62.76802923 63.40825451 62.75285857 61.82368088 62.73963928 C59.31952955 62.71861222 56.8155071 62.69159175 54.31143188 62.66296387 C48.0946696 62.59313202 41.8778161 62.53363624 35.66094971 62.47393799 C30.40448086 62.42309073 25.14808269 62.36830451 19.89171219 62.30812073 C17.41825685 62.2814636 14.94479519 62.26070257 12.47128296 62.2401123 C10.96441326 62.22351754 9.45754658 62.20664644 7.95068359 62.18945312 C7.25768661 62.18526871 6.56468964 62.18108429 5.85069275 62.17677307 C1.11384908 62.11384908 1.11384908 62.11384908 0 61 C-0.09391296 59.09756238 -0.11743658 57.19161541 -0.11352539 55.28686523 C-0.11340454 54.04851929 -0.11328369 52.81017334 -0.11315918 51.53430176 C-0.10548523 49.56632629 -0.10548523 49.56632629 -0.09765625 47.55859375 C-0.09664917 46.36045044 -0.09564209 45.16230713 -0.09460449 43.92785645 C-0.08935305 39.4310613 -0.07539195 34.93427974 -0.0625 30.4375 C-0.041875 20.393125 -0.02125 10.34875 0 0 Z " fill="#3C4D68" transform="translate(180,169)"/>
<path d="M0 0 C13.53 0 27.06 0 41 0 C41.495 1.485 41.495 1.485 42 3 C42.99 2.67 43.98 2.34 45 2 C45 4.31 45 6.62 45 9 C45.99 9.33 46.98 9.66 48 10 C47.91571128 17.91904568 47.82087344 25.83786396 47.71247292 33.75661278 C47.66247448 37.43340641 47.61614507 41.11017082 47.578125 44.78710938 C47.54131654 48.33393703 47.49496933 51.88052221 47.44193649 55.4271431 C47.42336878 56.7819151 47.40826962 58.13673913 47.39665604 59.49158859 C47.37983491 61.38560856 47.34966384 63.27949588 47.31884766 65.17333984 C47.30552399 66.25255707 47.29220032 67.33177429 47.2784729 68.44369507 C47 71 47 71 45 73 C42.68493652 73.25396729 42.68493652 73.25396729 39.75585938 73.25878906 C38.11405701 73.26824554 38.11405701 73.26824554 36.43908691 73.27789307 C35.25262573 73.2738446 34.06616455 73.26979614 32.84375 73.265625 C31.63054077 73.26753845 30.41733154 73.2694519 29.1673584 73.27142334 C26.59838657 73.27278634 24.02940788 73.26908192 21.46044922 73.26074219 C17.51644496 73.2500446 13.57289625 73.26063394 9.62890625 73.2734375 C7.13801982 73.27211593 4.64713368 73.26955358 2.15625 73.265625 C0.37655823 73.27169769 0.37655823 73.27169769 -1.43908691 73.27789307 C-2.53362183 73.27158875 -3.62815674 73.26528442 -4.75585938 73.25878906 C-5.72245483 73.25719788 -6.68905029 73.25560669 -7.68493652 73.25396729 C-10 73 -10 73 -12 71 C-12.2784729 68.61573792 -12.2784729 68.61573792 -12.31884766 65.58813477 C-12.33871735 64.45678604 -12.35858704 63.32543732 -12.37905884 62.1598053 C-12.39061005 60.93273361 -12.40216125 59.70566193 -12.4140625 58.44140625 C-12.43342865 57.18617661 -12.4527948 55.93094696 -12.4727478 54.63768005 C-12.52249933 51.29663282 -12.56372021 47.9556978 -12.60089111 44.61450195 C-12.64078697 41.21880862 -12.6920064 37.82328847 -12.7421875 34.42773438 C-13 16.49249456 -13 16.49249456 -13 11 C-11 9 -11 9 -8.8359375 8.8046875 C-7.61777344 8.83949219 -7.61777344 8.83949219 -6.375 8.875 C-5.14910156 8.90207031 -5.14910156 8.90207031 -3.8984375 8.9296875 C-2.95871094 8.96449219 -2.95871094 8.96449219 -2 9 C-2 6.36 -2 3.72 -2 1 C-1.67 1 -1.34 1 -1 1 C-1 2.65 -1 4.3 -1 6 C-0.67 5.67 -0.34 5.34 0 5 C0 3.35 0 1.7 0 0 Z " fill="#33A4FD" transform="translate(274,172)"/>
<path d="M0 0 C1.08667969 0.02707031 2.17335937 0.05414063 3.29296875 0.08203125 C4.54013672 0.13423828 4.54013672 0.13423828 5.8125 0.1875 C5.8125 2.4975 5.8125 4.8075 5.8125 7.1875 C2.8425 7.1875 -0.1275 7.1875 -3.1875 7.1875 C-3.1875 33.9175 -3.1875 60.6475 -3.1875 88.1875 C43.6725 88.1875 90.5325 88.1875 138.8125 88.1875 C138.8125 84.2275 138.8125 80.2675 138.8125 76.1875 C140.4625 76.1875 142.1125 76.1875 143.8125 76.1875 C143.87033842 80.47911047 143.9060412 84.77062145 143.9375 89.0625 C143.95425781 90.28582031 143.97101563 91.50914062 143.98828125 92.76953125 C143.99472656 93.93613281 144.00117188 95.10273438 144.0078125 96.3046875 C144.01828613 97.38347168 144.02875977 98.46225586 144.03955078 99.57373047 C143.8125 102.1875 143.8125 102.1875 141.8125 104.1875 C139.26341343 104.44197559 139.26341343 104.44197559 135.973526 104.44819641 C134.72981735 104.45528122 133.4861087 104.46236603 132.20471191 104.46966553 C130.8188473 104.4673715 129.43298302 104.46486177 128.04711914 104.4621582 C126.59357948 104.46650343 125.14004212 104.47168594 123.68650818 104.47764587 C119.73198016 104.49106782 115.77754752 104.491611 111.82300115 104.48908257 C108.52514511 104.48801498 105.22730853 104.4928908 101.92945665 104.497688 C94.15095442 104.50879431 86.37250047 104.50921433 78.59399414 104.50317383 C70.56189732 104.49713242 62.52997559 104.50944666 54.49790865 104.5307439 C47.6086951 104.54834107 40.71953738 104.55436423 33.83030218 104.55110615 C29.71267181 104.54929007 25.59516632 104.5519616 21.47755623 104.56582069 C17.60582815 104.57836384 13.73437363 104.57648856 9.86264992 104.56340981 C8.44001932 104.56103673 7.01736968 104.56380477 5.59476089 104.57203293 C3.65601803 104.58243945 1.71719775 104.57263124 -0.22154236 104.5617218 C-1.30758224 104.56188954 -2.39362211 104.56205729 -3.51257229 104.56223011 C-6.1875 104.1875 -6.1875 104.1875 -8.03656292 102.91792583 C-9.43611682 100.81370635 -9.56447606 99.64274228 -9.56845093 97.12646484 C-9.58114014 95.88990143 -9.58114014 95.88990143 -9.59408569 94.62835693 C-9.588013 93.72748352 -9.58194031 92.82661011 -9.57568359 91.8984375 C-9.58094055 90.94696838 -9.58619751 89.99549927 -9.59161377 89.01519775 C-9.60483808 85.86413244 -9.59606696 82.71357062 -9.5859375 79.5625 C-9.58795753 77.37678938 -9.59086838 75.19107941 -9.59463501 73.00537109 C-9.59906167 68.42213532 -9.59261622 63.8390748 -9.57861328 59.25585938 C-9.56152134 53.37419688 -9.57136068 47.49294503 -9.58933067 41.61129761 C-9.60015921 37.09721774 -9.59672642 32.5832356 -9.5889473 28.06915283 C-9.58694272 25.90016634 -9.58941355 23.73117104 -9.59638596 21.56219482 C-9.60398503 18.53341082 -9.59241764 15.50529649 -9.57568359 12.4765625 C-9.58479263 11.12525238 -9.58479263 11.12525238 -9.59408569 9.74664307 C-9.58562622 8.92226746 -9.57716675 8.09789185 -9.56845093 7.24853516 C-9.56731985 6.53251129 -9.56618877 5.81648743 -9.56502342 5.07876587 C-8.5095912 -0.20859599 -4.64569372 -0.14986109 0 0 Z " fill="#B9CADE" transform="translate(172.1875,170.8125)"/>
<path d="M0 0 C2.31 0 4.62 0 7 0 C7.01030746 0.64923935 7.02061493 1.2984787 7.03123474 1.96739197 C7.13906136 8.69899052 7.25367781 15.4304487 7.37231445 22.16186523 C7.41574006 24.67713496 7.45740929 27.19243563 7.49731445 29.70776367 C7.55483293 33.31438544 7.61857967 36.92085031 7.68359375 40.52734375 C7.70030624 41.65961899 7.71701874 42.79189423 7.73423767 43.95848083 C7.75418289 44.99948441 7.77412811 46.04048798 7.79467773 47.11303711 C7.81022202 48.03459091 7.8257663 48.95614471 7.84178162 49.90562439 C7.77022756 51.98750471 7.77022756 51.98750471 9 53 C11.49399065 53.12497615 13.96168329 53.1860288 16.45727539 53.20532227 C17.23770706 53.21522186 18.01813873 53.22512146 18.82221985 53.23532104 C21.41400063 53.26702775 24.00579977 53.2917295 26.59765625 53.31640625 C28.38985178 53.33696787 30.18204237 53.35796413 31.97422791 53.37937927 C36.7006532 53.43468176 41.42712285 53.48405483 46.15362549 53.53222656 C50.97290005 53.58238205 55.79210988 53.63809911 60.61132812 53.69335938 C70.07416351 53.80104089 79.53705499 53.90246351 89 54 C89.06058594 54.78246094 89.12117188 55.56492188 89.18359375 56.37109375 C89.26738281 57.38300781 89.35117187 58.39492187 89.4375 59.4375 C89.51871094 60.44683594 89.59992188 61.45617187 89.68359375 62.49609375 C89.73211468 64.93640779 89.73211468 64.93640779 91 66 C92.47250645 66.12232644 93.95065711 66.1777456 95.42797852 66.20532227 C96.83932823 66.2352401 96.83932823 66.2352401 98.27919006 66.26576233 C99.30209641 66.28247482 100.32500275 66.29918732 101.37890625 66.31640625 C102.42070541 66.33718735 103.46250458 66.35796844 104.53587341 66.37937927 C107.87801247 66.44499057 111.22023285 66.50381331 114.5625 66.5625 C116.82227418 66.60567422 119.08204001 66.64928814 121.34179688 66.69335938 C126.89444699 66.80068372 132.44717924 66.90191814 138 67 C138 70.63 138 74.26 138 78 C92.46 78 46.92 78 0 78 C0 52.26 0 26.52 0 0 Z " fill="#F4F8FC" transform="translate(171,179)"/>
<path d="M0 0 C3 0.125 3 0.125 4 1.125 C4.400383 3.98028607 4.7518227 6.82236487 5.0625 9.6875 C5.19881836 10.89696289 5.19881836 10.89696289 5.33789062 12.13085938 C5.56247449 14.12847377 5.78173236 16.1266856 6 18.125 C7.44681324 15.23137351 7.43242376 12.3166991 7.71875 9.12109375 C8 7.125 8 7.125 9 6.125 C10.99958364 6.08419217 13.00045254 6.08245644 15 6.125 C16.08318662 10.20778034 15.83473185 13.30378835 15.0625 17.4375 C14.86785156 18.50613281 14.67320312 19.57476562 14.47265625 20.67578125 C14.31667969 21.48402344 14.16070312 22.29226563 14 23.125 C16.31 23.125 18.62 23.125 21 23.125 C21.36011137 31.62762969 20.2527717 39.73590382 19 48.125 C20.35544922 48.07279297 20.35544922 48.07279297 21.73828125 48.01953125 C22.91777344 47.99246094 24.09726562 47.96539062 25.3125 47.9375 C26.48425781 47.90269531 27.65601563 47.86789062 28.86328125 47.83203125 C32 48.125 32 48.125 33.93359375 49.47265625 C35 51.125 35 51.125 34.75 53.75 C34 56.125 34 56.125 33 57.125 C31.45797144 57.22281368 29.91145305 57.2505551 28.36632538 57.25084114 C27.35824971 57.25344889 26.35017404 57.25605664 25.31155062 57.25874341 C24.19066152 57.25651268 23.06977242 57.25428196 21.91491699 57.25198364 C20.7346215 57.25354363 19.55432601 57.25510362 18.33826399 57.25671089 C15.04737915 57.26002415 11.75655087 57.25881172 8.46566939 57.25572467 C4.92234709 57.25347242 1.37902992 57.2569493 -2.16429138 57.25970459 C-9.11148285 57.26416317 -16.05866354 57.26318543 -23.00585544 57.26029195 C-28.64941743 57.25803826 -34.29297639 57.25772524 -39.9365387 57.25881577 C-41.13902147 57.25904561 -41.13902147 57.25904561 -42.36579683 57.25928011 C-43.99408257 57.25959982 -45.62236831 57.25992403 -47.25065404 57.2602527 C-62.53749633 57.26310775 -77.82433262 57.25982008 -93.11117393 57.25445233 C-106.24257598 57.24998427 -119.3739692 57.2507602 -132.50537109 57.25537109 C-147.73560148 57.26071642 -162.96582661 57.26283305 -178.1960578 57.25975883 C-179.81852563 57.25944026 -181.44099347 57.25912589 -183.0634613 57.25881577 C-183.86185347 57.25866149 -184.66024564 57.25850721 -185.48283151 57.25834826 C-191.12296012 57.25748298 -196.76308541 57.25894622 -202.4032135 57.26129532 C-209.27184041 57.26409306 -216.14045589 57.26335562 -223.00908148 57.25801457 C-226.5169803 57.2553772 -230.02486002 57.2543731 -233.53275871 57.25766373 C-237.3268224 57.2611691 -241.12085445 57.25699824 -244.91491699 57.25198364 C-246.03580609 57.25421436 -247.15669518 57.25644509 -248.31155062 57.25874341 C-249.31962629 57.25613566 -250.32770196 57.25352791 -251.36632538 57.25084114 C-252.24331699 57.25067879 -253.1203086 57.25051644 -254.02387571 57.25034916 C-256 57.125 -256 57.125 -257 56.125 C-257.1875 53.1875 -257.1875 53.1875 -257 50.125 C-255 48.125 -255 48.125 -253.12060547 47.89794922 C-252.37697754 47.90842285 -251.63334961 47.91889648 -250.8671875 47.9296875 C-250.06152344 47.93613281 -249.25585938 47.94257813 -248.42578125 47.94921875 C-247.58402344 47.96597656 -246.74226563 47.98273438 -245.875 48 C-244.60076172 48.01353516 -244.60076172 48.01353516 -243.30078125 48.02734375 C-241.20040116 48.05094353 -239.10016556 48.08681517 -237 48.125 C-237 49.445 -237 50.765 -237 52.125 C-201.36 52.125 -165.72 52.125 -129 52.125 C-129 50.805 -129 49.485 -129 48.125 C-121.74 48.125 -114.48 48.125 -107 48.125 C-107.66 49.445 -108.32 50.765 -109 52.125 C-96.46 52.125 -83.92 52.125 -71 52.125 C-71.99 50.145 -71.99 50.145 -73 48.125 C-49.9 48.125 -26.8 48.125 -3 48.125 C-3.99 39.71 -3.99 39.71 -5 31.125 C-5 28.485 -5 25.845 -5 23.125 C-3.68 23.125 -2.36 23.125 -1 23.125 C-1.13277344 22.54234375 -1.26554688 21.9596875 -1.40234375 21.359375 C-2.84111407 14.6801201 -3.85344386 7.96804428 -4 1.125 C-3 0.125 -3 0.125 0 0 Z " fill="#C4C5C6" transform="translate(330,246.875)"/>
<path d="M0 0 C1.31016083 -0.0076664 1.31016083 -0.0076664 2.64678955 -0.01548767 C5.53803328 -0.02940404 8.42903923 -0.02842555 11.3203125 -0.02612305 C13.32666106 -0.03000849 15.3330088 -0.03434284 17.33935547 -0.03910828 C21.54592556 -0.04657462 25.75241172 -0.04627593 29.95898438 -0.04101562 C35.35636481 -0.03521658 40.75340257 -0.05216054 46.15072632 -0.0753603 C50.29420997 -0.09007243 54.43761058 -0.09097285 58.58111572 -0.08785057 C60.57147908 -0.08836493 62.56184695 -0.09362397 64.55218506 -0.10366249 C67.33189354 -0.11596252 70.11092778 -0.10927438 72.890625 -0.09765625 C73.7166925 -0.10529999 74.54276001 -0.11294373 75.39385986 -0.12081909 C81.01453755 -0.06874255 81.01453755 -0.06874255 83.16183472 1.64301777 C84.97167293 3.94380181 84.74513619 5.57918346 84.6328125 8.4621582 C84.59220703 9.81374023 84.59220703 9.81374023 84.55078125 11.19262695 C84.51597656 11.87969727 84.48117187 12.56676758 84.4453125 13.2746582 C85.63608398 13.25894775 86.82685547 13.2432373 88.05371094 13.22705078 C92.47421497 13.17272533 96.89468952 13.13829857 101.31542969 13.10986328 C103.22824059 13.09478263 105.14101696 13.0743151 107.05371094 13.04833984 C109.8041232 13.01192473 112.55407804 12.99492471 115.3046875 12.98168945 C116.15899353 12.9662056 117.01329956 12.95072174 117.89349365 12.93476868 C121.45307084 12.93376112 123.81830097 12.95013866 127.01660156 14.60546875 C128.4453125 16.2746582 128.4453125 16.2746582 128.4453125 19.2746582 C127.7853125 19.2746582 127.1253125 19.2746582 126.4453125 19.2746582 C125.99371262 18.7885759 125.54211273 18.30249359 125.076828 17.80168152 C123.04158254 15.89678557 122.09000217 15.88457651 119.34106445 15.84228516 C118.52044022 15.822491 117.69981598 15.80269684 116.85432434 15.78230286 C115.97298325 15.77591293 115.09164215 15.76952301 114.18359375 15.76293945 C113.27780075 15.74498825 112.37200775 15.72703705 111.43876648 15.70854187 C108.54516254 15.65435161 105.65172435 15.62051534 102.7578125 15.5871582 C100.79620085 15.55399281 98.83461109 15.51950388 96.87304688 15.48364258 C92.06392153 15.39862014 87.25484609 15.33185061 82.4453125 15.2746582 C82.4453125 14.6146582 82.4453125 13.9546582 82.4453125 13.2746582 C52.0853125 13.2746582 21.7253125 13.2746582 -9.5546875 13.2746582 C-9.2246875 33.4046582 -8.8946875 53.5346582 -8.5546875 74.2746582 C-0.48580078 74.34813477 -0.48580078 74.34813477 7.74609375 74.4230957 C11.15040965 74.45847393 14.55469974 74.49442924 17.95898438 74.5324707 C23.36446474 74.59281949 28.76990891 74.65101033 34.17553711 74.6965332 C38.53282299 74.7333611 42.88991222 74.77971414 47.24703026 74.83272171 C48.91079452 74.85127896 50.57460095 74.866382 52.23842812 74.87800217 C54.56581458 74.89484201 56.89274938 74.92387093 59.2199707 74.95581055 C60.25575005 74.95905083 60.25575005 74.95905083 61.31245422 74.96235657 C64.91194508 75.02561817 66.35843808 75.21674192 69.4453125 77.2746582 C59.17955242 77.32093203 48.91381702 77.35650213 38.64797401 77.37828255 C33.88148956 77.38873432 29.11507629 77.40291884 24.34863281 77.42553711 C19.75156323 77.44721593 15.15456226 77.45921632 10.55744553 77.46441269 C8.80070286 77.46811739 7.04396409 77.47535142 5.28725052 77.48611832 C2.83285562 77.50056744 0.37874677 77.50263893 -2.07568359 77.50170898 C-2.80720139 77.50889954 -3.53871918 77.51609009 -4.29240417 77.52349854 C-9.32658318 77.50276253 -9.32658318 77.50276253 -11.5546875 75.2746582 C-11.79519653 73.06002808 -11.79519653 73.06002808 -11.78173828 70.27416992 C-11.78158722 69.23324188 -11.78143616 68.19231384 -11.78128052 67.11984253 C-11.76579666 65.4291716 -11.76579666 65.4291716 -11.75 63.7043457 C-11.7471701 62.55298126 -11.74434021 61.40161682 -11.74142456 60.21536255 C-11.73020158 56.52669008 -11.70509306 52.83825767 -11.6796875 49.1496582 C-11.66966044 46.65356795 -11.66053412 44.15747391 -11.65234375 41.66137695 C-11.63025534 35.53238836 -11.59675697 29.40354043 -11.5546875 23.2746582 C-13.8646875 23.2746582 -16.1746875 23.2746582 -18.5546875 23.2746582 C-18.5546875 49.0146582 -18.5546875 74.7546582 -18.5546875 101.2746582 C-18.8846875 101.2746582 -19.2146875 101.2746582 -19.5546875 101.2746582 C-19.5546875 75.2046582 -19.5546875 49.1346582 -19.5546875 22.2746582 C-16.9146875 22.2746582 -14.2746875 22.2746582 -11.5546875 22.2746582 C-11.5546875 19.9646582 -11.5546875 17.6546582 -11.5546875 15.2746582 C-13.51370204 15.38848474 -15.4719213 15.51606945 -17.4296875 15.6496582 C-19.06550781 15.75407227 -19.06550781 15.75407227 -20.734375 15.8605957 C-23.68515224 16.00719312 -23.68515224 16.00719312 -25.5546875 18.2746582 C-25.866841 21.29678968 -25.866841 21.29678968 -25.82592773 24.89575195 C-25.83376785 25.91549606 -25.83376785 25.91549606 -25.84176636 26.95584106 C-25.85201603 28.43343798 -25.85778845 29.9110711 -25.85964775 31.38870239 C-25.86330153 33.72512802 -25.87999927 36.06112539 -25.90040588 38.39746094 C-25.95592126 45.04036516 -25.98654786 51.68333252 -26.01098633 58.32641602 C-26.02682988 62.38777799 -26.05701332 66.4488356 -26.09575081 70.51004028 C-26.10742833 72.06019875 -26.1133314 73.61041157 -26.11343193 75.16061401 C-26.11362323 77.32525566 -26.13183207 79.48905337 -26.15405273 81.65356445 C-26.16165871 83.50316772 -26.16165871 83.50316772 -26.16941833 85.39013672 C-26.29655716 86.34202881 -26.42369598 87.2939209 -26.5546875 88.2746582 C-30.22717422 90.72298268 -32.1092909 90.54032893 -36.48828125 90.58325195 C-37.87305113 90.60840966 -39.25781665 90.63380772 -40.64257812 90.65942383 C-42.81940608 90.68816651 -44.99615862 90.71219243 -47.1730957 90.73095703 C-49.27855075 90.7526431 -51.38313022 90.79207851 -53.48828125 90.83325195 C-54.74697021 90.84670654 -56.00565918 90.86016113 -57.30249023 90.87402344 C-60.74135337 91.29765338 -62.19967316 91.76261867 -64.5546875 94.2746582 C-65.06426805 98.9458132 -64.68541329 101.01320663 -62.5546875 105.2746582 C-51.3346875 105.6046582 -40.1146875 105.9346582 -28.5546875 106.2746582 C-28.5546875 106.6046582 -28.5546875 106.9346582 -28.5546875 107.2746582 C-33.44757915 107.39855301 -38.33955177 107.48913329 -43.23364258 107.54931641 C-44.89721589 107.57441167 -46.56067946 107.60849616 -48.22387695 107.65185547 C-50.61957903 107.7127328 -53.01382001 107.74091589 -55.41015625 107.76293945 C-56.1499321 107.78874588 -56.88970795 107.81455231 -57.65190125 107.84114075 C-61.65633911 107.84330009 -63.36532747 107.42580191 -66.53540039 104.89550781 C-68.7324668 102.04391696 -69.11078762 101.03303649 -68.8046875 97.5246582 C-68.70158144 96.10929322 -68.61327864 94.69256369 -68.5546875 93.2746582 C-68.8846875 92.9446582 -69.2146875 92.6146582 -69.5546875 92.2746582 C-68.18485247 89.11350045 -67.5656237 88.28194901 -64.5546875 86.2746582 C-60.46229637 85.14049274 -56.5143849 85.15959772 -52.28515625 85.17700195 C-51.60415359 85.1784169 -50.92315094 85.17983185 -50.22151184 85.18128967 C-48.06169103 85.18685522 -45.90197661 85.19940117 -43.7421875 85.2121582 C-42.27148588 85.21717766 -40.80078262 85.22173979 -39.33007812 85.22583008 C-35.7382471 85.23681332 -32.1464777 85.25405399 -28.5546875 85.2746582 C-28.57134209 84.0101181 -28.57134209 84.0101181 -28.58833313 82.72003174 C-28.68852521 74.7746492 -28.76464713 66.82947884 -28.81374836 58.88360977 C-28.83984077 54.79851582 -28.87523092 50.71394389 -28.93188477 46.62915039 C-28.98621939 42.68689599 -29.01611072 38.74514359 -29.02907372 34.80254364 C-29.0383112 33.29858242 -29.05635045 31.79464863 -29.08333778 30.29090118 C-29.11965139 28.18364653 -29.12463248 26.07846456 -29.12231445 23.97094727 C-29.13896904 22.17225189 -29.13896904 22.17225189 -29.15596008 20.33721924 C-28.5546875 17.2746582 -28.5546875 17.2746582 -26.21379089 14.8805542 C-22.96399456 12.91792464 -21.00587263 12.85922149 -17.2421875 13.0246582 C-16.17355469 13.06075195 -15.10492188 13.0968457 -14.00390625 13.1340332 C-12.79154297 13.20364258 -12.79154297 13.20364258 -11.5546875 13.2746582 C-11.60689453 12.11836914 -11.60689453 12.11836914 -11.66015625 10.9387207 C-11.68722656 9.93583008 -11.71429688 8.93293945 -11.7421875 7.8996582 C-11.79439453 6.40305664 -11.79439453 6.40305664 -11.84765625 4.8762207 C-11.70263672 3.58844727 -11.70263672 3.58844727 -11.5546875 2.2746582 C-7.68765247 -0.30336515 -4.48432004 -0.0134487 0 0 Z " fill="#263F6D" transform="translate(189.5546875,155.725341796875)"/>
<path d="M0 0 C0.70706085 0.00359528 1.4141217 0.00719055 2.14260864 0.01089478 C3.25473473 0.01067574 3.25473473 0.01067574 4.389328 0.01045227 C6.85130696 0.01115152 9.31321119 0.01894442 11.775177 0.02676392 C13.47768614 0.02862806 15.18019582 0.03005198 16.88270569 0.03105164 C21.37245148 0.03487714 25.86216513 0.0447077 30.35189819 0.05575562 C34.92983566 0.06596903 39.50777831 0.07054911 44.08572388 0.07559204 C53.07467032 0.08632994 62.06359287 0.10340675 71.05252075 0.12442017 C71.18529419 0.7625061 71.31806763 1.40059204 71.4548645 2.05801392 C71.71976685 3.29744751 71.71976685 3.29744751 71.99002075 4.56192017 C72.25105591 5.79748657 72.25105591 5.79748657 72.5173645 7.05801392 C72.86005069 9.1010322 72.86005069 9.1010322 74.05252075 10.12442017 C75.90144022 10.35805898 77.75740107 10.53745651 79.61502075 10.68692017 C80.62693481 10.77070923 81.63884888 10.85449829 82.681427 10.94082642 C83.46388794 11.00141235 84.24634888 11.06199829 85.05252075 11.12442017 C84.72252075 12.77442017 84.39252075 14.42442017 84.05252075 16.12442017 C72.46563673 16.14754245 60.87875816 16.16533466 49.29185581 16.17623234 C43.91218313 16.18146142 38.53252618 16.18855952 33.15286255 16.19985962 C27.96577232 16.21068761 22.77869726 16.21669681 17.5915966 16.21929741 C15.60795795 16.22115182 13.62432017 16.22477273 11.64068794 16.23015022 C8.8724294 16.23735949 6.10423437 16.23841116 3.33596802 16.23794556 C2.50734756 16.24154083 1.67872711 16.24513611 0.82499695 16.24884033 C-4.83342709 16.23847233 -4.83342709 16.23847233 -5.94747925 15.12442017 C-6.04657227 12.79281962 -6.07718429 10.45812075 -6.07247925 8.12442017 C-6.07505737 6.84567017 -6.0776355 5.56692017 -6.08029175 4.24942017 C-5.87001247 -0.69832765 -4.52123296 0.00969833 0 0 Z " fill="#4FB46E" transform="translate(89.94747924804688,264.8755798339844)"/>
<path d="M0 0 C3 0.125 3 0.125 4 1.125 C4.400383 3.98028607 4.7518227 6.82236487 5.0625 9.6875 C5.15337891 10.49380859 5.24425781 11.30011719 5.33789062 12.13085938 C5.56247449 14.12847377 5.78173236 16.1266856 6 18.125 C7.44681324 15.23137351 7.43242376 12.3166991 7.71875 9.12109375 C8 7.125 8 7.125 9 6.125 C10.99958364 6.08419217 13.00045254 6.08245644 15 6.125 C16.08318662 10.20778034 15.83473185 13.30378835 15.0625 17.4375 C14.86785156 18.50613281 14.67320312 19.57476562 14.47265625 20.67578125 C14.31667969 21.48402344 14.16070312 22.29226563 14 23.125 C16.31 23.125 18.62 23.125 21 23.125 C21.48803577 33.04839394 19.65071682 42.35825884 18 52.125 C11.4 52.125 4.8 52.125 -2 52.125 C-2.50710281 48.79261009 -3.00586235 45.45931623 -3.5 42.125 C-3.64308594 41.19042969 -3.78617187 40.25585938 -3.93359375 39.29296875 C-4.7350261 33.83559609 -5.15609327 28.64029539 -5 23.125 C-3.68 23.125 -2.36 23.125 -1 23.125 C-1.13277344 22.54234375 -1.26554687 21.9596875 -1.40234375 21.359375 C-2.84111407 14.6801201 -3.85344386 7.96804428 -4 1.125 C-3 0.125 -3 0.125 0 0 Z " fill="#6466C2" transform="translate(330,246.875)"/>
<path d="M0 0 C2.31 0 4.62 0 7 0 C7.01030746 0.64923935 7.02061493 1.2984787 7.03123474 1.96739197 C7.13906136 8.69899052 7.25367781 15.4304487 7.37231445 22.16186523 C7.41574006 24.67713496 7.45740929 27.19243563 7.49731445 29.70776367 C7.55483293 33.31438544 7.61857967 36.92085031 7.68359375 40.52734375 C7.70030624 41.65961899 7.71701874 42.79189423 7.73423767 43.95848083 C7.75418289 44.99948441 7.77412811 46.04048798 7.79467773 47.11303711 C7.81022202 48.03459091 7.8257663 48.95614471 7.84178162 49.90562439 C7.77022756 51.98750471 7.77022756 51.98750471 9 53 C11.49399065 53.12497615 13.96168329 53.1860288 16.45727539 53.20532227 C17.23770706 53.21522186 18.01813873 53.22512146 18.82221985 53.23532104 C21.41400063 53.26702775 24.00579977 53.2917295 26.59765625 53.31640625 C28.38985178 53.33696787 30.18204237 53.35796413 31.97422791 53.37937927 C36.7006532 53.43468176 41.42712285 53.48405483 46.15362549 53.53222656 C50.97290005 53.58238205 55.79210988 53.63809911 60.61132812 53.69335938 C70.07416351 53.80104089 79.53705499 53.90246351 89 54 C89.06058594 54.78246094 89.12117188 55.56492188 89.18359375 56.37109375 C89.26738281 57.38300781 89.35117187 58.39492187 89.4375 59.4375 C89.51871094 60.44683594 89.59992188 61.45617187 89.68359375 62.49609375 C89.73211468 64.93640779 89.73211468 64.93640779 91 66 C92.47250645 66.12232644 93.95065711 66.1777456 95.42797852 66.20532227 C96.83932823 66.2352401 96.83932823 66.2352401 98.27919006 66.26576233 C99.30209641 66.28247482 100.32500275 66.29918732 101.37890625 66.31640625 C102.42070541 66.33718735 103.46250458 66.35796844 104.53587341 66.37937927 C107.87801247 66.44499057 111.22023285 66.50381331 114.5625 66.5625 C116.82227418 66.60567422 119.08204001 66.64928814 121.34179688 66.69335938 C126.89444699 66.80068372 132.44717924 66.90191814 138 67 C138 70.63 138 74.26 138 78 C137.67 78 137.34 78 137 78 C137 75.69 137 73.38 137 71 C136.40531418 71.00444122 135.81062836 71.00888245 135.19792175 71.01345825 C129.01763304 71.05764875 122.8373891 71.08784858 116.65698242 71.10986328 C114.3493467 71.11993107 112.04172375 71.13358623 109.73413086 71.15087891 C106.42037809 71.17509287 103.10679374 71.18647526 99.79296875 71.1953125 C98.7585112 71.20563507 97.72405365 71.21595764 96.6582489 71.22659302 C95.6974794 71.22674408 94.7367099 71.22689514 93.74682617 71.22705078 C92.90077316 71.231492 92.05472015 71.23593323 91.18302917 71.24050903 C89 71 89 71 86 69 C85.70703125 66.6171875 85.70703125 66.6171875 85.8125 63.875 C85.85310547 62.50988281 85.85310547 62.50988281 85.89453125 61.1171875 C85.92933594 60.41851562 85.96414063 59.71984375 86 59 C84.48450058 59.00666183 84.48450058 59.00666183 82.93838501 59.01345825 C73.4323926 59.0539432 63.92641761 59.08395493 54.42035866 59.10362434 C49.53280682 59.1140764 44.64532439 59.12826144 39.7578125 59.15087891 C35.04403371 59.17255671 30.33032182 59.1845579 25.61649704 59.18975449 C23.81509726 59.19345937 22.01370128 59.20069374 20.21232986 59.21146011 C17.69567099 59.22590787 15.17929111 59.22798078 12.66259766 59.22705078 C11.91237839 59.23424133 11.16215912 59.24143188 10.38920593 59.24884033 C5.22810432 59.22810432 5.22810432 59.22810432 3 57 C2.75949097 54.6335144 2.75949097 54.6335144 2.77294922 51.63232422 C2.77310028 50.51131317 2.77325134 49.39030212 2.77340698 48.23532104 C2.78372955 47.02071198 2.79405212 45.80610291 2.8046875 44.5546875 C2.8075174 43.31453888 2.81034729 42.07439026 2.81326294 40.79666138 C2.82257826 37.49875367 2.8405511 34.20104028 2.8626709 30.90319824 C2.88312526 27.5383543 2.89226377 24.17348193 2.90234375 20.80859375 C2.92443481 14.20565277 2.95793517 7.60284229 3 1 C2.01 0.67 1.02 0.34 0 0 Z " fill="#BBC4D4" transform="translate(171,179)"/>
<path d="M0 0 C1.25695679 0.00539291 1.25695679 0.00539291 2.53930664 0.01089478 C3.41727402 0.01074875 4.29524139 0.01060272 5.19981384 0.01045227 C8.11630685 0.01115172 11.03273683 0.01894561 13.94921875 0.02676392 C15.96561142 0.02862798 17.98200454 0.03005194 19.99839783 0.03105164 C25.31671388 0.03487772 30.6350028 0.04470878 35.95330811 0.05575562 C41.37576938 0.06596779 46.79823502 0.07054884 52.22070312 0.07559204 C62.86850153 0.08633097 73.51627976 0.10340847 84.1640625 0.12442017 C84.1640625 2.76442017 84.1640625 5.40442017 84.1640625 8.12442017 C54.1340625 8.12442017 24.1040625 8.12442017 -6.8359375 8.12442017 C-6.8359375 0.01238666 -6.8359375 0.01238666 0 0 Z " fill="#C7D5E9" transform="translate(186.8359375,158.87557983398438)"/>
<path d="M0 0 C13.53 0 27.06 0 41 0 C41.495 1.485 41.495 1.485 42 3 C42.99 2.67 43.98 2.34 45 2 C45 4.31 45 6.62 45 9 C45.99 9.33 46.98 9.66 48 10 C47.67 30.13 47.34 50.26 47 71 C46.67 71 46.34 71 46 71 C45.67 51.53 45.34 32.06 45 12 C35.821875 11.95875 26.64375 11.9175 17.1875 11.875 C14.29121826 11.85679199 11.39493652 11.83858398 8.41088867 11.81982422 C6.12158392 11.81398436 3.8322771 11.8088876 1.54296875 11.8046875 C-0.24772034 11.7893396 -0.24772034 11.7893396 -2.07458496 11.77368164 C-3.77947083 11.77331909 -3.77947083 11.77331909 -5.51879883 11.77294922 C-6.50697098 11.768508 -7.49514313 11.76406677 -8.51325989 11.75949097 C-11.25167629 11.82687755 -11.25167629 11.82687755 -14 14 C-12.125 10.125 -12.125 10.125 -11 9 C-9.48071962 8.92820036 -7.95832518 8.91607993 -6.4375 8.9375 C-5.61121094 8.94652344 -4.78492188 8.95554688 -3.93359375 8.96484375 C-3.29550781 8.97644531 -2.65742188 8.98804688 -2 9 C-2 6.36 -2 3.72 -2 1 C-1.67 1 -1.34 1 -1 1 C-1 2.65 -1 4.3 -1 6 C-0.67 5.67 -0.34 5.34 0 5 C0 3.35 0 1.7 0 0 Z " fill="#4B6892" transform="translate(274,172)"/>
<path d="M0 0 C3.47914941 -0.02887814 6.95826831 -0.04675687 10.4375 -0.0625 C11.92733398 -0.07506836 11.92733398 -0.07506836 13.44726562 -0.08789062 C14.39150391 -0.09111328 15.33574219 -0.09433594 16.30859375 -0.09765625 C17.62041626 -0.10551147 17.62041626 -0.10551147 18.95874023 -0.11352539 C21 0 21 0 22 1 C22.24832471 3.87412854 22.38395928 6.74757983 22.5234375 9.62890625 C23.00008542 13.87867498 23.00008542 13.87867498 26 21 C16.1 21 6.2 21 -4 21 C-3.34 19.02 -2.68 17.04 -2 15 C-1.56914626 12.36700491 -1.18772185 9.77031923 -0.875 7.125 C-0.78863281 6.43664062 -0.70226562 5.74828125 -0.61328125 5.0390625 C-0.40340434 3.36004725 -0.20092913 1.68010952 0 0 Z " fill="#BBCCDF" transform="translate(229,276)"/>
<path d="M0 0 C3 0.125 3 0.125 4 1.125 C4.400383 3.98028607 4.7518227 6.82236487 5.0625 9.6875 C5.15337891 10.49380859 5.24425781 11.30011719 5.33789062 12.13085938 C5.56247449 14.12847377 5.78173236 16.1266856 6 18.125 C7.44681324 15.23137351 7.43242376 12.3166991 7.71875 9.12109375 C8 7.125 8 7.125 9 6.125 C10.99958364 6.08419217 13.00045254 6.08245644 15 6.125 C16.08318662 10.20778034 15.83473185 13.30378835 15.0625 17.4375 C14.86785156 18.50613281 14.67320312 19.57476562 14.47265625 20.67578125 C14.31667969 21.48402344 14.16070312 22.29226563 14 23.125 C16.31 23.125 18.62 23.125 21 23.125 C21.48803577 33.04839394 19.65071682 42.35825884 18 52.125 C11.73 52.125 5.46 52.125 -1 52.125 C-1 51.795 -1 51.465 -1 51.125 C7.415 50.63 7.415 50.63 16 50.125 C16.99 41.875 17.98 33.625 19 25.125 C11.74 25.125 4.48 25.125 -3 25.125 C-2.34 28.425 -1.68 31.725 -1 35.125 C-0.87588034 37.83080854 -0.82575989 40.54179377 -0.875 43.25 C-0.89304687 44.55195313 -0.91109375 45.85390625 -0.9296875 47.1953125 C-0.96449219 48.64550781 -0.96449219 48.64550781 -1 50.125 C-3.90900897 47.21599103 -3.71823544 43.92094359 -4.125 40 C-4.21136719 39.26523437 -4.29773438 38.53046875 -4.38671875 37.7734375 C-4.93130372 32.8635286 -5.07839556 28.06392007 -5 23.125 C-3.68 23.125 -2.36 23.125 -1 23.125 C-1.13277344 22.54234375 -1.26554687 21.9596875 -1.40234375 21.359375 C-2.84111407 14.6801201 -3.85344386 7.96804428 -4 1.125 C-3 0.125 -3 0.125 0 0 Z " fill="#203A6B" transform="translate(330,246.875)"/>
<path d="M0 0 C0.33 0 0.66 0 1 0 C1.06941953 9.22267087 1.12277008 18.44525222 1.15543652 27.66812706 C1.17111243 31.95039452 1.19238549 36.23248364 1.22631836 40.51464844 C1.25884364 44.6448912 1.2768385 48.77496211 1.28463173 52.90532303 C1.29018758 54.48345268 1.30103646 56.06157261 1.31719017 57.63962936 C1.33887438 59.84508561 1.34197082 62.04982592 1.34057617 64.25537109 C1.34723801 65.51223724 1.35389984 66.76910339 1.36076355 68.0640564 C1.24171158 69.03291779 1.12265961 70.00177917 1 71 C-2.67248672 73.44832448 -4.5546034 73.26567072 -8.93359375 73.30859375 C-10.31836363 73.33375146 -11.70312915 73.35914951 -13.08789062 73.38476562 C-15.26471858 73.4135083 -17.44147112 73.43753423 -19.6184082 73.45629883 C-21.72386325 73.4779849 -23.82844272 73.51742031 -25.93359375 73.55859375 C-27.19228271 73.57204834 -28.45097168 73.58550293 -29.74780273 73.59936523 C-33.18666587 74.02299517 -34.64498566 74.48796047 -37 77 C-37.50958055 81.671155 -37.13072579 83.73854842 -35 88 C-23.78 88.33 -12.56 88.66 -1 89 C-1 89.33 -1 89.66 -1 90 C-5.89289165 90.1238948 -10.78486427 90.21447509 -15.67895508 90.2746582 C-17.34252839 90.29975347 -19.00599196 90.33383796 -20.66918945 90.37719727 C-23.06489153 90.4380746 -25.45913251 90.46625769 -27.85546875 90.48828125 C-28.5952446 90.51408768 -29.33502045 90.5398941 -30.09721375 90.56648254 C-34.10165161 90.56864189 -35.81063997 90.1511437 -38.98071289 87.62084961 C-41.1777793 84.76925876 -41.55610012 83.75837829 -41.25 80.25 C-41.14689394 78.83463502 -41.05859114 77.41790549 -41 76 C-41.33 75.67 -41.66 75.34 -42 75 C-40.63016497 71.83884224 -40.0109362 71.0072908 -37 69 C-32.90760887 67.86583454 -28.9596974 67.88493952 -24.73046875 67.90234375 C-24.04946609 67.9037587 -23.36846344 67.90517365 -22.66682434 67.90663147 C-20.50700353 67.91219702 -18.34728911 67.92474297 -16.1875 67.9375 C-14.71679838 67.94251946 -13.24609512 67.94708159 -11.77539062 67.95117188 C-8.1835596 67.96215512 -4.5917902 67.97939578 -1 68 C-1.00222061 67.16283951 -1.00444122 66.32567902 -1.00672913 65.46315002 C-1.02673032 57.59032586 -1.04197325 49.71751017 -1.05181217 41.84466648 C-1.05704041 37.79674258 -1.06413699 33.74883959 -1.07543945 29.70092773 C-1.08627043 25.79764029 -1.09227728 21.89437301 -1.09487724 17.9910717 C-1.09673111 16.49866353 -1.100351 15.00625652 -1.10573006 13.51385689 C-1.11294331 11.43051861 -1.11399083 9.34726469 -1.11352539 7.26391602 C-1.115746 6.07588882 -1.11796661 4.88786163 -1.12025452 3.66383362 C-1 1 -1 1 0 0 Z " fill="#243967" transform="translate(162,173)"/>
<path d="M0 0 C0.33 0 0.66 0 1 0 C1 26.07 1 52.14 1 79 C46.87 79 92.74 79 140 79 C140 76.69 140 74.38 140 72 C140.5 69.5625 140.5 69.5625 141 68 C143.31 68 145.62 68 148 68 C148 76.25 148 84.5 148 93 C147.67 93 147.34 93 147 93 C147 85.08 147 77.16 147 69 C145.35 69 143.7 69 142 69 C142 72.96 142 76.92 142 81 C95.14 81 48.28 81 0 81 C0 54.27 0 27.54 0 0 Z " fill="#344C78" transform="translate(169,178)"/>
<path d="M0 0 C0.33 0 0.66 0 1 0 C1.06948809 7.77116308 1.12280502 15.54225348 1.15543652 23.31364918 C1.1710975 26.92218303 1.19234315 30.53050444 1.22631836 34.13891602 C1.25889717 37.62078122 1.27684975 41.10244201 1.28463173 44.58444786 C1.29287856 46.56042097 1.31630038 48.53631175 1.33988953 50.51216125 C1.34011612 51.71317978 1.34034271 52.9141983 1.34057617 54.15161133 C1.35056892 55.74045891 1.35056892 55.74045891 1.36076355 57.36140442 C0.94574385 60.39682514 0.25404591 61.05744848 -2 63 C-2.44071206 65.62549994 -2.44071206 65.62549994 -2.37109375 68.5859375 C-2.38849609 69.68164062 -2.40589844 70.77734375 -2.42382812 71.90625 C-2.43291187 74.21092548 -2.43814661 76.51561949 -2.43945312 78.8203125 C-2.45814453 79.91859375 -2.47683594 81.016875 -2.49609375 82.1484375 C-2.49794678 83.15052246 -2.4997998 84.15260742 -2.50170898 85.18505859 C-3.14951866 88.84465954 -4.38494487 90.37761879 -7 93 C-9.83477783 93.60127258 -9.83477783 93.60127258 -13.14550781 93.56762695 C-14.38649231 93.5672493 -15.62747681 93.56687164 -16.90606689 93.56648254 C-18.25509651 93.54095137 -19.60411584 93.51487142 -20.953125 93.48828125 C-22.33745038 93.47895131 -23.72179232 93.47183604 -25.10614014 93.46684265 C-28.74306118 93.4477863 -32.37897774 93.39869979 -36.01550293 93.34332275 C-39.72894706 93.29209934 -43.44255412 93.26932217 -47.15625 93.24414062 C-54.43795707 93.19057756 -61.71883759 93.10528397 -69 93 C-69 95.31 -69 97.62 -69 100 C-69.66 100 -70.32 100 -71 100 C-71 97.03 -71 94.06 -71 91 C-70.21517242 90.99413376 -69.43034485 90.98826752 -68.62173462 90.98222351 C-61.23463653 90.92438075 -53.84787901 90.85235351 -46.46108437 90.76428509 C-42.66320532 90.71950846 -38.86543534 90.68026895 -35.06738281 90.65356445 C-31.40377011 90.62760345 -27.74057554 90.58725362 -24.07722092 90.53681374 C-22.67780117 90.52009592 -21.27830901 90.50861231 -19.87880325 90.50238609 C-17.92250442 90.49279916 -15.96633531 90.46307423 -14.01025391 90.43237305 C-12.8955069 90.42126999 -11.78075989 90.41016693 -10.63223267 90.39872742 C-9.76359589 90.26714737 -8.89495911 90.13556732 -8 90 C-5.74129892 86.61194839 -5.70740587 85.22649259 -5.5859375 81.23828125 C-5.54726563 80.12001953 -5.50859375 79.00175781 -5.46875 77.84960938 C-5.4378125 76.68236328 -5.406875 75.51511719 -5.375 74.3125 C-5.33632813 73.13365234 -5.29765625 71.95480469 -5.2578125 70.74023438 C-5.16345609 67.82698023 -5.07786839 64.91373393 -5 62 C-7.31 62 -9.62 62 -12 62 C-12.33 63.32 -12.66 64.64 -13 66 C-13 64.68 -13 63.36 -13 62 C-28.18 62 -43.36 62 -59 62 C-59 61.67 -59 61.34 -59 61 C-58.30064835 60.98969254 -57.60129669 60.97938507 -56.88075256 60.96876526 C-50.30286337 60.87094968 -43.7250658 60.76845843 -37.14733219 60.66066074 C-33.76532878 60.60540198 -30.38331676 60.55197744 -27.0012207 60.50268555 C-23.11660573 60.44599054 -19.23214122 60.38142415 -15.34765625 60.31640625 C-13.51800072 60.29133751 -13.51800072 60.29133751 -11.65138245 60.26576233 C-10.53029587 60.24581711 -9.40920929 60.22587189 -8.25415039 60.20532227 C-7.26153702 60.18977798 -6.26892365 60.1742337 -5.24623108 60.15821838 C-3.03025703 60.24881556 -3.03025703 60.24881556 -2 59 C-1.88193643 57.19546343 -1.83264562 55.38638462 -1.81054688 53.578125 C-1.79382935 52.42022461 -1.77711182 51.26232422 -1.7598877 50.06933594 C-1.74631226 48.80895508 -1.73273682 47.54857422 -1.71875 46.25 C-1.6906296 44.28932539 -1.66250391 42.32865084 -1.63405609 40.36798096 C-1.58524932 36.91203962 -1.54282913 33.45601975 -1.5 30 C-1.44894033 25.87983148 -1.39681495 21.75970088 -1.33703613 17.63964844 C-1.3001824 15.07004815 -1.26779046 12.50037956 -1.2401123 9.93066406 C-1.22339478 8.77276367 -1.20667725 7.61486328 -1.18945312 6.421875 C-1.17066101 4.88418457 -1.17066101 4.88418457 -1.15148926 3.31542969 C-1 1 -1 1 0 0 Z " fill="#1E3868" transform="translate(322,184)"/>
<path d="M0 0 C0.75042068 0.00424484 1.50084137 0.00848969 2.27400208 0.01286316 C4.66871151 0.02964425 7.06257659 0.06729385 9.45703125 0.10546875 C11.08136805 0.1205164 12.70571805 0.13420466 14.33007812 0.14648438 C18.31022073 0.1795457 22.28973288 0.23132281 26.26953125 0.29296875 C26.26953125 1.28296875 26.26953125 2.27296875 26.26953125 3.29296875 C15.04953125 3.29296875 3.82953125 3.29296875 -7.73046875 3.29296875 C-7.73046875 3.95296875 -7.73046875 4.61296875 -7.73046875 5.29296875 C3.48953125 5.29296875 14.70953125 5.29296875 26.26953125 5.29296875 C26.26953125 6.28296875 26.26953125 7.27296875 26.26953125 8.29296875 C15.04953125 8.29296875 3.82953125 8.29296875 -7.73046875 8.29296875 C-7.73046875 8.95296875 -7.73046875 9.61296875 -7.73046875 10.29296875 C3.48953125 10.29296875 14.70953125 10.29296875 26.26953125 10.29296875 C26.26953125 11.28296875 26.26953125 12.27296875 26.26953125 13.29296875 C21.48237502 13.36712043 16.69555298 13.42157079 11.90795898 13.45776367 C10.27931902 13.47285118 8.65071969 13.49332381 7.0222168 13.51928711 C4.6813759 13.55567324 2.34107206 13.57269495 0 13.5859375 C-1.09233696 13.60916328 -1.09233696 13.60916328 -2.20674133 13.63285828 C-7.21540564 13.63452611 -7.21540564 13.63452611 -9.69018555 11.9934082 C-11.45836478 9.10315512 -11.08184769 6.57250552 -10.73046875 3.29296875 C-8.24642194 -0.76743632 -4.25951639 -0.09056785 0 0 Z " fill="#F8F9FA" transform="translate(134.73046875,246.70703125)"/>
<path d="M0 0 C26.07 0 52.14 0 79 0 C79.495 5.445 79.495 5.445 80 11 C81.58476052 12.58476052 83.22892001 12.16427317 85.42797852 12.20532227 C86.83932823 12.2352401 86.83932823 12.2352401 88.27919006 12.26576233 C89.30209641 12.28247482 90.32500275 12.29918732 91.37890625 12.31640625 C92.42070541 12.33718735 93.46250458 12.35796844 94.53587341 12.37937927 C97.87801247 12.44499057 101.22023285 12.50381331 104.5625 12.5625 C106.82227418 12.60567422 109.08204001 12.64928814 111.34179688 12.69335938 C116.89444699 12.80068372 122.44717924 12.90191814 128 13 C128 16.63 128 20.26 128 24 C127.67 24 127.34 24 127 24 C127 21.69 127 19.38 127 17 C126.10797127 17.00666183 126.10797127 17.00666183 125.19792175 17.01345825 C119.01763304 17.05764875 112.8373891 17.08784858 106.65698242 17.10986328 C104.3493467 17.11993107 102.04172375 17.13358623 99.73413086 17.15087891 C96.42037809 17.17509287 93.10679374 17.18647526 89.79296875 17.1953125 C88.7585112 17.20563507 87.72405365 17.21595764 86.6582489 17.22659302 C85.6974794 17.22674408 84.7367099 17.22689514 83.74682617 17.22705078 C82.90077316 17.231492 82.05472015 17.23593323 81.18302917 17.24050903 C79 17 79 17 76 15 C76 10.38 76 5.76 76 1 C50.92 1 25.84 1 0 1 C0 0.67 0 0.34 0 0 Z " fill="#B2BCCE" transform="translate(181,233)"/>
<path d="M0 0 C0.08687496 3.12482562 0.14034568 6.24934246 0.1875 9.375 C0.21263672 10.26445312 0.23777344 11.15390625 0.26367188 12.0703125 C0.27333984 12.92109375 0.28300781 13.771875 0.29296875 14.6484375 C0.3086792 15.43395996 0.32438965 16.21948242 0.34057617 17.02880859 C0.17199097 18.00454834 0.17199097 18.00454834 0 19 C-4.88948753 22.25965835 -10.60275872 21.13334413 -16.30615234 20.94335938 C-18.49193027 20.87525145 -20.67674625 20.83913662 -22.86328125 20.8046875 C-24.25266144 20.76497662 -25.64198911 20.72337326 -27.03125 20.6796875 C-28.29517578 20.64601074 -29.55910156 20.61233398 -30.86132812 20.57763672 C-34 20 -34 20 -37 16 C-25.45 16 -13.9 16 -2 16 C-2 15.01 -2 14.02 -2 13 C-13.22 13 -24.44 13 -36 13 C-36 12.34 -36 11.68 -36 11 C-24.78 11 -13.56 11 -2 11 C-2 10.01 -2 9.02 -2 8 C-13.22 8 -24.44 8 -36 8 C-36 7.34 -36 6.68 -36 6 C-24.78 6 -13.56 6 -2 6 C-2 5.01 -2 4.02 -2 3 C-12.56 3 -23.12 3 -34 3 C-34 2.67 -34 2.34 -34 2 C-33.0713916 1.97494385 -32.1427832 1.9498877 -31.18603516 1.92407227 C-27.74564196 1.82902068 -24.30542287 1.72978293 -20.86523438 1.62768555 C-19.37537359 1.58433411 -17.88546305 1.54265916 -16.39550781 1.50268555 C-14.25570673 1.44498785 -12.11615615 1.38129245 -9.9765625 1.31640625 C-8.68830566 1.27974854 -7.40004883 1.24309082 -6.07275391 1.20532227 C-3.7992326 1.05340494 -2.07471004 0 0 0 Z " fill="#364C77" transform="translate(163,244)"/>
<path d="M0 0 C5.82071622 -0.02464638 11.64140234 -0.0428343 17.4621582 -0.05493164 C19.44393441 -0.05997267 21.42570689 -0.06680538 23.4074707 -0.07543945 C26.24952109 -0.08751515 29.09152247 -0.09323045 31.93359375 -0.09765625 C32.82525742 -0.10281754 33.71692108 -0.10797882 34.63560486 -0.11329651 C36.75740601 -0.11349177 38.8791078 -0.0621003 41 0 C42 1 42 1 42.09765625 2.84765625 C42.06510417 4.8984375 42.03255208 6.94921875 42 9 C40.02 9 38.04 9 36 9 C36 7.68 36 6.36 36 5 C24.12 5 12.24 5 0 5 C0 3.35 0 1.7 0 0 Z " fill="#BDCDE0" transform="translate(274,172)"/>
<path d="M0 0 C0.99 0 1.98 0 3 0 C3.13277344 0.63808594 3.26554687 1.27617187 3.40234375 1.93359375 C3.66724609 3.17302734 3.66724609 3.17302734 3.9375 4.4375 C4.19853516 5.67306641 4.19853516 5.67306641 4.46484375 6.93359375 C4.80752994 8.97661204 4.80752994 8.97661204 6 10 C7.84891946 10.23363881 9.70488031 10.41303635 11.5625 10.5625 C12.57441406 10.64628906 13.58632812 10.73007812 14.62890625 10.81640625 C15.41136719 10.87699219 16.19382812 10.93757813 17 11 C16.67 12.65 16.34 14.3 16 16 C-13.37 16 -42.74 16 -73 16 C-73 15.67 -73 15.34 -73 15 C-47.26 14.67 -21.52 14.34 5 14 C3.68 12.68 2.36 11.36 1 10 C-0.60725635 6.78548731 -0.05748185 3.56387464 0 0 Z " fill="#459B6D" transform="translate(158,265)"/>
<path d="M0 0 C0.66 0.33 1.32 0.66 2 1 C1.67 1.33 1.34 1.66 1 2 C0.90141397 3.4555937 0.87027857 4.91607919 0.875 6.375 C0.87242188 7.16648438 0.86984375 7.95796875 0.8671875 8.7734375 C0.91382334 11.17343496 0.91382334 11.17343496 2 14 C6.447799 15.98560965 10.53796308 16.29432966 15.3671875 16.4140625 C16.04677521 16.43342865 16.72636292 16.4527948 17.42654419 16.4727478 C19.57590579 16.53205099 21.72532241 16.57872891 23.875 16.625 C25.3411679 16.66322532 26.80731443 16.70227964 28.2734375 16.7421875 C31.84876164 16.83771044 35.42424748 16.92192126 39 17 C39 17.33 39 17.66 39 18 C1.38 18.495 1.38 18.495 -37 19 C-37 18.01 -37 17.02 -37 16 C-24.79 15.67 -12.58 15.34 0 15 C-0.99 12.69 -1.98 10.38 -3 8 C-2.8125 4.125 -2.8125 4.125 -2 1 C-1.34 0.67 -0.68 0.34 0 0 Z " fill="#213868" transform="translate(121,247)"/>
<path d="M0 0 C1.15468025 0.01061211 1.15468025 0.01061211 2.33268738 0.0214386 C4.77879178 0.049312 7.22256259 0.11202988 9.66796875 0.17578125 C11.33134702 0.20087357 12.99476137 0.22368512 14.65820312 0.24414062 C18.72485032 0.29911454 22.78976464 0.38533198 26.85546875 0.48828125 C26.52546875 1.14828125 26.19546875 1.80828125 25.85546875 2.48828125 C24.93733398 2.50286377 24.01919922 2.51744629 23.07324219 2.5324707 C19.65858966 2.5936164 16.24473203 2.66778342 12.83056641 2.75073242 C11.35443737 2.7839348 9.87818281 2.81198142 8.40185547 2.8347168 C6.27647543 2.86835076 4.15224071 2.92066644 2.02734375 2.9765625 C0.74956055 3.00274658 -0.52822266 3.02893066 -1.84472656 3.0559082 C-5.2953799 3.50804693 -6.78161701 3.96385969 -9.14453125 6.48828125 C-9.6541118 11.15943625 -9.27525704 13.22682967 -7.14453125 17.48828125 C4.07546875 17.81828125 15.29546875 18.14828125 26.85546875 18.48828125 C26.85546875 18.81828125 26.85546875 19.14828125 26.85546875 19.48828125 C21.9625771 19.61217605 17.07060448 19.70275634 12.17651367 19.76293945 C10.51294036 19.78803472 8.84947679 19.82211921 7.1862793 19.86547852 C4.79057722 19.92635585 2.39633624 19.95453894 0 19.9765625 C-0.73977585 20.00236893 -1.4795517 20.02817535 -2.241745 20.05476379 C-6.24940784 20.05692488 -7.94889558 19.64570721 -11.11206055 17.1003418 C-13.20506303 14.41048791 -13.82839574 13.33178453 -13.76953125 9.98828125 C-13.78242187 9.25609375 -13.7953125 8.52390625 -13.80859375 7.76953125 C-11.77613656 0.78744302 -6.45005343 -0.22500442 0 0 Z " fill="#793C59" transform="translate(134.14453125,243.51171875)"/>
<path d="M0 0 C3 0.125 3 0.125 4 1.125 C5.17041879 8.40760581 5.86355856 15.90371056 4 23.125 C-0.875 22.25 -0.875 22.25 -2 21.125 C-2.53611627 17.81295564 -2.80027963 14.46367426 -3.125 11.125 C-3.22425781 10.18398438 -3.32351563 9.24296875 -3.42578125 8.2734375 C-3.51472656 7.37882813 -3.60367187 6.48421875 -3.6953125 5.5625 C-3.8193042 4.32306641 -3.8193042 4.32306641 -3.94580078 3.05859375 C-3.96368652 2.42050781 -3.98157227 1.78242188 -4 1.125 C-3 0.125 -3 0.125 0 0 Z " fill="#243E6C" transform="translate(330,246.875)"/>
<path d="M0 0 C3.47914941 -0.02887814 6.95826831 -0.04675687 10.4375 -0.0625 C11.92733398 -0.07506836 11.92733398 -0.07506836 13.44726562 -0.08789062 C14.39150391 -0.09111328 15.33574219 -0.09433594 16.30859375 -0.09765625 C17.62041626 -0.10551147 17.62041626 -0.10551147 18.95874023 -0.11352539 C21 0 21 0 22 1 C22 2.98 22 4.96 22 7 C14.74 7 7.48 7 0 7 C0 4.69 0 2.38 0 0 Z " fill="#8A9DB9" transform="translate(229,276)"/>
<path d="M0 0 C1.65 0 3.3 0 5 0 C4.69484916 4.14640909 4.37965489 8.29199318 4.0625 12.4375 C3.97548828 13.62150391 3.88847656 14.80550781 3.79882812 16.02539062 C3.71181641 17.15009766 3.62480469 18.27480469 3.53515625 19.43359375 C3.456604 20.47572021 3.37805176 21.51784668 3.29711914 22.59155273 C3 25 3 25 2 26 C0.65984779 26.15582303 -0.68758903 26.25044142 -2.03515625 26.31640625 C-2.84404297 26.35830078 -3.65292969 26.40019531 -4.48632812 26.44335938 C-5.33646484 26.48267578 -6.18660156 26.52199219 -7.0625 26.5625 C-7.91650391 26.60568359 -8.77050781 26.64886719 -9.65039062 26.69335938 C-11.76672037 26.79976702 -13.88333813 26.90041731 -16 27 C-15.67 24.36 -15.34 21.72 -15 19 C-14.67 19 -14.34 19 -14 19 C-14 20.98 -14 22.96 -14 25 C-10.04 25 -6.08 25 -2 25 C-1.90912109 22.92138672 -1.90912109 22.92138672 -1.81640625 20.80078125 C-1.73197073 18.97134493 -1.64732424 17.14191834 -1.5625 15.3125 C-1.52318359 14.40048828 -1.48386719 13.48847656 -1.44335938 12.54882812 C-1.40146484 11.66259766 -1.35957031 10.77636719 -1.31640625 9.86328125 C-1.26141968 8.64572144 -1.26141968 8.64572144 -1.20532227 7.40356445 C-0.98962569 4.87855515 -0.54100548 2.47399303 0 0 Z " fill="#4C52D0" transform="translate(344,272)"/>
<path d="M0 0 C1.4540625 0.0309375 1.4540625 0.0309375 2.9375 0.0625 C4.02068662 4.14528034 3.77223185 7.24128835 3 11.375 C2.80535156 12.44363281 2.61070312 13.51226562 2.41015625 14.61328125 C2.17619141 15.82564453 2.17619141 15.82564453 1.9375 17.0625 C3.5875 17.0625 5.2375 17.0625 6.9375 17.0625 C6.9375 17.3925 6.9375 17.7225 6.9375 18.0625 C3.6375 18.0625 0.3375 18.0625 -3.0625 18.0625 C-3.206875 17.11375 -3.35125 16.165 -3.5 15.1875 C-3.89185399 12.1690506 -3.89185399 12.1690506 -5.0625 10.0625 C-4.9765625 7.93359375 -4.9765625 7.93359375 -4.6875 5.5 C-4.59726562 4.69433594 -4.50703125 3.88867188 -4.4140625 3.05859375 C-3.83855625 -0.20900287 -3.44968263 0.07040169 0 0 Z " fill="#263965" transform="translate(342.0625,252.9375)"/>
<path d="M0 0 C26.07 0 52.14 0 79 0 C79 1.65 79 3.3 79 5 C78.01 5 77.02 5 76 5 C76 3.68 76 2.36 76 1 C50.92 1 25.84 1 0 1 C0 0.67 0 0.34 0 0 Z " fill="#7586A4" transform="translate(181,233)"/>
<path d="M0 0 C0.99 0 1.98 0 3 0 C3.13277344 0.63808594 3.26554688 1.27617187 3.40234375 1.93359375 C3.57894531 2.75988281 3.75554687 3.58617187 3.9375 4.4375 C4.11152344 5.26121094 4.28554687 6.08492188 4.46484375 6.93359375 C4.80752994 8.97661204 4.80752994 8.97661204 6 10 C7.84891946 10.23363881 9.70488031 10.41303635 11.5625 10.5625 C12.57441406 10.64628906 13.58632812 10.73007812 14.62890625 10.81640625 C15.41136719 10.87699219 16.19382813 10.93757813 17 11 C16.67 12.32 16.34 13.64 16 15 C5.88214702 14.65110852 5.88214702 14.65110852 2.375 12.0625 C-0.43723411 7.84414884 -0.08078507 5.00867445 0 0 Z " fill="#418E6C" transform="translate(158,265)"/>
<path d="M0 0 C0.99 0 1.98 0 3 0 C3.10957031 0.60328125 3.21914062 1.2065625 3.33203125 1.828125 C4.21668391 6.28734977 4.927629 9.50866931 8 13 C8 13.66 8 14.32 8 15 C-3.55 14.67 -15.1 14.34 -27 14 C-26.67 13.34 -26.34 12.68 -26 12 C-16.43 12 -6.86 12 3 12 C2.01 9.69 1.02 7.38 0 5 C-0.1875 2.0625 -0.1875 2.0625 0 0 Z " fill="#465D85" transform="translate(251,284)"/>
<path d="M0 0 C0.99 0 1.98 0 3 0 C3.66 5.61 4.32 11.22 5 17 C4.01 17 3.02 17 2 17 C1.66507287 14.54187409 1.3319903 12.08352273 1 9.625 C0.90460938 8.92632812 0.80921875 8.22765625 0.7109375 7.5078125 C0 2.2265625 0 2.2265625 0 0 Z " fill="#D89064" transform="translate(329,253)"/>
<path d="M0 0 C3.96 0 7.92 0 12 0 C12 2.31 12 4.62 12 7 C9.36 7 6.72 7 4 7 C5.32 6.67 6.64 6.34 8 6 C8 4.35 8 2.7 8 1 C5.36 1 2.72 1 0 1 C0 0.67 0 0.34 0 0 Z " fill="#798DAC" transform="translate(166,171)"/>
<path d="M0 0 C0.99 0 1.98 0 3 0 C2.67 3.63 2.34 7.26 2 11 C1.01 11 0.02 11 -1 11 C-0.67 7.37 -0.34 3.74 0 0 Z " fill="#E74F54" transform="translate(340,259)"/>
<path d="M0 0 C0.33 0 0.66 0 1 0 C1.04898438 0.61488281 1.09796875 1.22976563 1.1484375 1.86328125 C1.22320312 2.67152344 1.29796875 3.47976563 1.375 4.3125 C1.44460937 5.11300781 1.51421875 5.91351563 1.5859375 6.73828125 C1.89564426 9.27224441 1.89564426 9.27224441 4 12 C3.01 12 2.02 12 1 12 C-1.69461986 7.95807022 -1.23200889 5.7948504 -1 1 C-0.67 0.67 -0.34 0.34 0 0 Z " fill="#27496B" transform="translate(162,263)"/>
<path d="M0 0 C0.66 0 1.32 0 2 0 C2.16873478 1.43725871 2.33490737 2.87481838 2.5 4.3125 C2.5928125 5.11300781 2.685625 5.91351563 2.78125 6.73828125 C3 9 3 9 3 12 C2.01 11.34 1.02 10.68 0 10 C-0.29296875 7.6171875 -0.29296875 7.6171875 -0.1875 4.875 C-0.16042969 3.96492187 -0.13335937 3.05484375 -0.10546875 2.1171875 C-0.07066406 1.41851562 -0.03585937 0.71984375 0 0 Z " fill="#304A78" transform="translate(260,234)"/>
<path d="M0 0 C0.66 0 1.32 0 2 0 C0.79157144 4.43090471 -0.51668565 6.98112756 -4 10 C-4 5.75354935 -2.18249194 3.61475228 0 0 Z " fill="#263F6F" transform="translate(226,289)"/>
<path d="M0 0 C0.33 0 0.66 0 1 0 C1.33 4.29 1.66 8.58 2 13 C1.01 13 0.02 13 -1 13 C-1.07654536 8.48382401 -1.10228696 4.40914783 0 0 Z " fill="#354368" transform="translate(329,255)"/>
<path d="M0 0 C0.99 0 1.98 0 3 0 C3 2.97 3 5.94 3 9 C2.34 9 1.68 9 1 9 C0.67 6.03 0.34 3.06 0 0 Z " fill="#F69F64" transform="translate(329,253)"/>
</svg>
