<svg height="32" viewBox="0 0 32 32" width="32" xmlns="http://www.w3.org/2000/svg"><path d="m2 28h28v2h-28z"/><path d="m24.5 11h-16.5a2.002 2.002 0 0 0 -2 2v8a5.0059 5.0059 0 0 0 5 5h8a5.0059 5.0059 0 0 0 5-5v-1h.5a4.5 4.5 0 0 0 0-9zm-2.5 10a3.0033 3.0033 0 0 1 -3 3h-8a3.0033 3.0033 0 0 1 -3-3v-8h14zm2.5-3h-.5v-5h.5a2.5 2.5 0 0 1 0 5z"/><path d="m19 9h-2v-.146a1.9883 1.9883 0 0 0 -1.1055-1.7886l-2.6836-1.3418a3.9788 3.9788 0 0 1 -2.2109-3.5776v-1.146h2v1.146a1.9892 1.9892 0 0 0 1.1055 1.7886l2.6836 1.3418a3.9792 3.9792 0 0 1 2.2109 3.5776z"/><path d="m0 0h32v32h-32z" fill="none"/></svg>