<?xml version="1.0" encoding="UTF-8"?>
<svg version="1.1" viewBox="0 0 1600 1232" width="1280" height="1280" xmlns="http://www.w3.org/2000/svg">
<path transform="translate(358,101)" d="m0 0h324c-0.33 0.66-0.66 1.32-1 2-0.0938 1.94-0.122 3.88-0.12 5.82-0.00137 1.24-0.00275 2.48-0.00417 3.76 0.00354 1.38 0.00717 2.76 0.0109 4.14 2.82e-4 1.45 1.24e-4 2.9-4.43e-4 4.35-2.88e-4 3.94 0.0056 7.88 0.0126 11.8 0.00624 4.11 0.00684 8.23 0.00803 12.3 0.00311 7.79 0.0113 15.6 0.0213 23.4 0.0133 10.5 0.0187 21.1 0.0245 31.6 0.00941 16.6 0.0293 33.2 0.0475 49.8h-82v452c8.91 0.33 17.8 0.66 27 1-0.0155-2.8-0.0311-5.6-0.0471-8.49-0.139-25.7-0.244-51.4-0.31-77.1-0.00875-3.37-0.0178-6.74-0.0271-10.1-0.00184-0.671-0.00367-1.34-0.00556-2.03-0.0304-10.9-0.0856-21.7-0.15-32.6-0.0655-11.1-0.104-22.3-0.119-33.4-0.00913-6.26-0.0306-12.5-0.0815-18.8-0.0475-5.89-0.0622-11.8-0.0516-17.7-0.00192-2.16-0.0158-4.32-0.0427-6.48-0.0349-2.95-0.0264-5.91-0.00734-8.86-0.0204-0.852-0.0408-1.7-0.0618-2.58 0.105-6.02 1.97-8.97 6.15-13.2 0.577-0.553 1.15-1.11 1.75-1.68 0.839-0.876 1.68-1.75 2.54-2.65 0.781-0.775 1.56-1.55 2.37-2.35 1.35-1.34 1.35-1.34 2.72-2.71 0.468-0.464 0.936-0.928 1.42-1.41 1.49-1.48 2.98-2.96 4.47-4.44 3.69-3.68 7.39-7.35 11.1-11 3.14-3.12 6.27-6.24 9.4-9.36 1.45-1.45 2.91-2.89 4.36-4.33 4.46-4.44 8.75-8.93 12.8-13.7 3.61-4.08 7.51-7.89 11.4-11.7 0.903-0.904 1.81-1.81 2.74-2.74 1.9-1.9 3.8-3.8 5.71-5.7 2.42-2.41 4.83-4.83 7.24-7.25 2.33-2.34 4.67-4.67 7-7 0.855-0.857 1.71-1.71 2.59-2.6 4.25-4.24 8.55-8.34 13.1-12.2 2.2-1.83 2.2-1.83 4.17-4.84 5.01-4.96 12.4-3.8 19-3.76 1.58-0.0134 3.16-0.0293 4.74-0.0476 4.34-0.0425 8.67-0.0475 13-0.0462 4.68-0.00495 9.35-0.0441 14-0.0786 10.2-0.0685 20.5-0.0923 30.7-0.107 6.39-0.00977 12.8-0.0293 19.2-0.051 17.7-0.0587 35.4-0.108 53.1-0.117 1.7-8.44e-4 1.7-8.44e-4 3.43-0.00171 2.3-0.0011 4.59-0.00219 6.89-0.00327 1.14-5.48e-4 2.28-0.0011 3.45-0.00166 1.14-5.42e-4 2.28-0.00108 3.46-0.00164 18.5-0.0106 37-0.0916 55.4-0.204 19-0.114 38-0.172 56.9-0.173 10.7-0.00175 21.3-0.0271 32-0.114 9.07-0.0737 18.1-0.0953 27.2-0.0503 4.63 0.0215 9.25 0.0192 13.9-0.0492 30.6-0.427 30.6-0.427 39 7.16 2.31 2.53 4.31 5.13 6.18 8 1.66 2.38 3.69 4.11 5.95 5.9 1.82 1.49 3.23 2.79 4.64 4.68 1.99 2.64 4.26 4.82 6.61 7.14 0.91 0.907 1.82 1.81 2.76 2.75 1.01 1.01 2.02 2.01 3.02 3.02 5.65 5.64 11.3 11.3 17 16.9 3.41 3.4 6.82 6.81 10.2 10.2 3.31 3.3 6.63 6.61 9.94 9.92 1.25 1.25 2.51 2.51 3.77 3.76 5.83 5.8 11.6 11.6 17 17.8 1.83 2.13 3.78 4.12 5.77 6.1 0.744 0.741 1.49 1.48 2.26 2.25 1.13 1.12 1.13 1.12 2.28 2.25 0.779 0.775 1.56 1.55 2.36 2.35 1.9 1.89 3.8 3.77 5.7 5.65-0.33 0.66-0.66 1.32-1 2-0.0927 1.6-0.122 3.2-0.12 4.8-0.00138 1.01-0.00275 2.02-0.00417 3.06 0.0054 1.68 0.0054 1.68 0.0109 3.38-1.21e-4 1.19-2.41e-4 2.38-3.65e-4 3.61 7.49e-4 3.87 0.00837 7.73 0.0162 11.6 0.00147 2.38 0.00249 4.76 0.00305 7.14 0.00525 8.85 0.0192 17.7 0.0321 26.5 0.0309 29.6 0.0309 29.6 0.0625 59.9h-195c-1.19-2.38-1.12-3.83-1.11-6.49-5.79e-4 -0.932-0.00116-1.86-0.00175-2.82 0.00211-1.01 0.00422-2.02 0.00639-3.06-0.0135-2.14-0.0285-4.28-0.0449-6.42-0.0228-3.38-0.0372-6.75-0.0247-10.1 0.00886-3.26-0.0202-6.51-0.0554-9.77 0.0183-1.5 0.0183-1.5 0.0371-3.02-0.147-8.61-3.41-13.4-8.96-19.7-0.958-0.916-0.958-0.916-1.94-1.85-0.703-0.684-1.41-1.37-2.13-2.07-0.713-0.679-1.43-1.36-2.16-2.06-1.45-1.39-2.9-2.78-4.34-4.18-0.632-0.603-1.26-1.21-1.92-1.83-1.37-1.55-1.37-1.55-1.37-3.55h-196v182c8.58 0.33 17.2 0.66 26 1-0.0105-2.25-0.0209-4.5-0.0317-6.82-0.0331-7.44-0.0552-14.9-0.0719-22.3-0.0104-4.51-0.0246-9.02-0.0473-13.5-0.0217-4.35-0.0337-8.7-0.0389-13.1-0.0037-1.66-0.0109-3.32-0.0217-4.98-0.0145-2.32-0.0165-4.65-0.0156-6.97-0.00719-0.687-0.0144-1.37-0.0218-2.08 0.0169-3.91 0.433-5.62 2.25-9.26h177c-0.33 0.99-0.66 1.98-1 3-0.0889 1.35-0.124 2.71-0.123 4.07-0.00199 0.832-0.00398 1.66-0.00603 2.52 0.00291 0.913 0.00583 1.83 0.00883 2.77-8.54e-4 0.97-0.00171 1.94-0.00259 2.94-0.00165 3.27 0.00386 6.53 0.00932 9.8 2.82e-4 2.34 1.24e-4 4.67-4.43e-4 7.01-2.88e-4 6.35 0.0056 12.7 0.0126 19.1 0.00561 5.96 0.00662 11.9 0.00765 17.9 0.00219 11.8 0.00885 23.6 0.0183 35.4 0.00918 11.5 0.0162 22.9 0.0205 34.4 2.68e-4 0.714 5.36e-4 1.43 8.12e-4 2.16 0.00231 6.21 0.00447 12.4 0.0066 18.6 0.00941 26.8 0.0293 53.5 0.0475 80.3h-204c-0.33 26.7-0.66 53.5-1 81 1.32 0.66 2.64 1.32 4 2 1.64 1.89 3.18 3.79 4.71 5.77 8.93 10.9 17.8 21 32.4 23 8.38 0.807 16.8 0.666 25.2 0.431 4.62-0.105 9.24-0.0712 13.9-0.0581 7.74 0.00154 15.5-0.0983 23.2-0.265 8.91-0.191 17.8-0.232 26.7-0.192 8.64 0.0368 17.3-0.0179 25.9-0.118 3.65-0.0416 7.29-0.0547 10.9-0.0441 21.3 0.905 21.3 0.905 39.6-8.04 2.28-2.67 4.23-5.43 6.06-8.43 1.51-2.21 3.2-3.86 5.17-5.67 2.31-2.23 3.13-3.1 4.08-6.25-7.96e-4 -0.949-0.00159-1.9-0.00241-2.88 0.0163-1.09 0.0325-2.18 0.0493-3.3-0.0261-1.73-0.0261-1.73-0.0527-3.5 0.00992-1.2 0.0198-2.4 0.0301-3.64 0.0251-3.82 0.00278-7.65-0.0222-11.5 0.00673-3.84 0.023-7.67 0.042-11.5 0.00831-2.38 0.00754-4.77-0.00323-7.15-0.00397-1.62-0.00397-1.62-0.00803-3.27-0.00557-0.947-0.0111-1.89-0.0169-2.87 0.111-2.52 0.111-2.52 1.11-6.52h197c-0.33 1.32-0.66 2.64-1 4-0.0654 1.66-0.0752 3.33-0.0462 4.99 0.0218 1.51 0.0218 1.51 0.044 3.05 0.0313 1.65 0.0313 1.65 0.0633 3.33 0.0363 2.41 0.0722 4.82 0.108 7.22 0.0203 1.28 0.0407 2.55 0.0616 3.87 0.059 4 0.104 8.01 0.142 12 0.00639 0.677 0.0128 1.35 0.0194 2.05 0.026 2.79 0.0514 5.58 0.0766 8.38 0.072 7.91 0.162 15.8 0.307 23.7 0.115 6.29 0.19 12.6 0.219 18.9 0.0171 3.32 0.0595 6.64 0.138 9.96 0.524 22.9 0.524 22.9-4.52 29.1-1.88 1.9-3.91 3.6-6.03 5.22-2.74 2.17-5.07 4.75-7.49 7.26-1.02 1.03-2.05 2.05-3.08 3.07-2.21 2.19-4.41 4.38-6.61 6.57-3.55 3.53-7.1 7.07-10.6 10.6-4.14 4.11-8.27 8.23-12.4 12.3-1.63 1.63-3.27 3.25-4.91 4.88-1.02 1.01-2.03 2.02-3.05 3.04-0.875 0.87-1.75 1.74-2.65 2.64-4.76 4.95-9.21 9.96-13.1 15.6-11.8 17.2-27.2 36.1-48.6 40.7-22.8 4.21-46.7 3.03-69.7 2.47-10.6-0.249-21.2-0.26-31.8-0.265-18.9-0.016-37.9-0.234-56.8-0.572-18.3-0.327-36.6-0.518-55-0.554-1.13-0.00225-2.27-0.0045-3.43-0.00682-1.7-0.00332-1.7-0.00332-3.43-0.0067-2.28-0.00447-4.55-0.00899-6.83-0.0135-1.12-0.00222-2.25-0.00445-3.4-0.00674-17.6-0.0401-35.1-0.2-52.7-0.375-6.33-0.0615-12.7-0.106-19-0.139-10-0.052-20.1-0.156-30.1-0.367-4.57-0.0952-9.14-0.167-13.7-0.169-30.2-0.0461-30.2-0.0461-39.2-8.14-3.02-3.24-5.57-6.65-8.01-10.3-2.03-2.64-3.69-4.76-6.31-6.81-2.28-1.86-3.95-3.57-5.83-5.79-3.89-4.5-8.03-8.7-12.3-12.9-0.809-0.808-1.62-1.62-2.45-2.45-1.74-1.74-3.49-3.48-5.23-5.21-2.76-2.75-5.51-5.5-8.27-8.25-5.84-5.83-11.7-11.7-17.5-17.5-6.79-6.77-13.6-13.5-20.4-20.3-2.72-2.71-5.44-5.42-8.17-8.13-1.66-1.65-3.31-3.3-4.97-4.96-0.762-0.756-1.52-1.51-2.31-2.29-0.69-0.69-1.38-1.38-2.09-2.09-0.602-0.6-1.2-1.2-1.82-1.82-2.76-3-2.53-5.36-2.53-9.33-0.00282-1.24-0.00564-2.47-0.00854-3.75 0.00194-1.38 0.00399-2.76 0.00613-4.13-0.00135-1.45-0.00313-2.89-0.00531-4.34-0.00457-3.93-0.00279-7.86 3.79e-4 -11.8 0.00253-4.11 1.85e-4 -8.22-0.00139-12.3-0.00182-6.9 5.83e-4 -13.8 0.00534-20.7 0.00544-7.99 0.00368-16-0.00183-24-0.00453-6.85-0.00518-13.7-0.00256-20.5 0.00156-4.09 0.00176-8.19-0.00154-12.3-0.00288-3.85-8.98e-4 -7.7 0.00489-11.5 0.00133-1.41 9.36e-4 -2.83-0.00126-4.24-0.00272-1.93 0.00129-3.85 0.00568-5.78 3.77e-4 -1.08 7.54e-4 -2.16 0.00114-3.27 0.126-2.54 0.126-2.54 1.13-4.54h-269c-1.09-3.28-1.13-5.68-1.13-9.14-0.00423-1.93-0.00423-1.93-0.00854-3.89 0.00194-1.43 0.00399-2.85 0.00613-4.28-0.00135-1.5-0.00314-3-0.00531-4.5-0.00457-4.08-0.00279-8.15 3.79e-4 -12.2 0.00253-4.26 1.84e-4 -8.53-0.00139-12.8-0.00182-7.16 5.81e-4 -14.3 0.00534-21.5 0.00544-8.28 0.00368-16.6-0.00183-24.8-0.00454-7.11-0.00518-14.2-0.00256-21.3 0.00156-4.25 0.00177-8.49-0.00154-12.7-0.00289-3.99-8.81e-4 -7.99 0.00489-12 0.00132-1.47 9.44e-4 -2.93-0.00126-4.4-0.00274-2 0.0013-4 0.00568-6 3.77e-4 -1.12 7.54e-4 -2.24 0.00114-3.39 0.126-3 0.126-3 1.13-8h61c0.0227-51.4 0.0406-103 0.0511-154 0.00125-6.09 0.00254-12.2 0.00387-18.3 3.93e-4 -1.82 3.93e-4 -1.82 7.95e-4 -3.67 0.00433-19.5 0.0122-39.1 0.0214-58.6 0.00941-20.1 0.0149-40.2 0.0169-60.3 0.00136-12.4 0.00563-24.7 0.0138-37.1 0.00536-8.52 0.00687-17 0.00558-25.6-6.3e-4 -4.89 2.16e-4 -9.78 0.0057-14.7 0.0284-26.6-0.424-53.2-1.12-79.8-29.7-0.495-29.7-0.495-60-1-1.34-2.68-1.13-4.73-1.13-7.73-0.00423-1.83-0.00423-1.83-0.00854-3.7 0.00194-1.36 0.00399-2.72 0.00613-4.08-0.00135-1.43-0.00313-2.85-0.00531-4.28-0.00457-3.88-0.00279-7.76 3.79e-4 -11.6 0.00253-4.05 1.85e-4 -8.1-0.00139-12.2-0.00182-6.81 5.83e-4 -13.6 0.00534-20.4 0.00544-7.88 0.00368-15.8-0.00183-23.6-0.00453-6.75-0.00518-13.5-0.00256-20.3 0.00156-4.04 0.00176-8.08-0.00154-12.1-0.00288-3.8-8.97e-4 -7.59 0.00489-11.4 0.00133-1.4 9.36e-4 -2.79-0.00126-4.19-0.00272-1.9 0.00129-3.8 0.00568-5.7 3.77e-4 -1.06 7.54e-4 -2.13 0.00114-3.23 0.126-2.51 0.126-2.51 1.13-4.51z" fill="#E12028"/>
<path transform="translate(381 121)" d="m0 0c1.28 3.26e-4 1.28 3.26e-4 2.58 6.59e-4 0.982-0.0046 1.96-0.0092 2.98-0.0139 1.63 0.00772 1.63 0.00772 3.29 0.0156 1.15-0.00241 2.3-0.00483 3.48-0.00732 3.2-0.00468 6.39-3.29e-4 9.59 0.00776 3.44 0.00656 6.89 0.00163 10.3-0.00188 6.75-0.00505 13.5 6.09e-4 20.3 0.00985 7.85 0.0104 15.7 0.0103 23.6 0.00983 14-5.01e-4 28 0.00867 42 0.0232 13.6 0.0141 27.2 0.0212 40.8 0.0205 0.838-4e-5 1.68-7.99e-5 2.54-1.21e-4 0.837-4.04e-5 1.67-8.07e-5 2.54-1.22e-4 15.5-6.89e-4 30.9 0.0052 46.4 0.0142 5.48 0.00302 11 0.00408 16.4 0.00453 6.67 6.81e-4 13.3 0.00512 20 0.0143 3.41 0.00463 6.82 0.00766 10.2 0.00641 3.69-4.87e-4 7.37 0.00513 11.1 0.0124 1.09-0.00155 2.18-0.0031 3.3-0.00469 0.98 0.00322 1.96 0.00645 2.97 0.00977 1.28 0.00106 1.28 0.00106 2.58 0.00213 1.92 0.126 1.92 0.126 2.92 1.13 0.0955 1.4 0.122 2.81 0.12 4.22 0.00138 0.908 0.00275 1.82 0.00417 2.75-0.0036 1.01-0.0072 2.02-0.0109 3.06 1.81e-4 1.61 1.81e-4 1.61 3.65e-4 3.24-7.49e-4 3.48-0.00838 6.97-0.0162 10.5-0.00147 2.14-0.00249 4.29-0.00305 6.43-0.00525 7.97-0.0192 15.9-0.0321 23.9-0.0206 17.8-0.0412 35.6-0.0625 53.9h-125c2.15 4.3 2.27 4.49 6.44 5.94 7.01 2.58 13.7 5.73 20.5 8.9 0.675 0.316 1.35 0.632 2.04 0.958 1.33 0.625 2.66 1.25 3.99 1.88 2.66 1.25 5.25 2.39 8.04 3.32 1.53 3.06 1.14 6.25 1.14 9.6 0.00284 0.798 0.00568 1.6 0.00861 2.42 0.00839 2.7 0.00962 5.4 0.0109 8.1 0.00456 1.94 0.00956 3.89 0.015 5.83 0.0136 5.37 0.021 10.7 0.0274 16.1 0.00798 5.78 0.0217 11.6 0.0347 17.3 0.0218 10 0.0399 20 0.0556 30.1 0.0227 14.5 0.0508 29 0.0803 43.5 0.0478 23.5 0.091 47 0.131 70.5 0.0393 22.8 0.0808 45.7 0.125 68.5 0.00278 1.44 0.00555 2.87 0.00833 4.31 0.0215 11.1 0.0432 22.2 0.0648 33.3 0.106 54.5 0.202 109 0.299 163 95.7 0.33 191 0.66 290 1v-74c3-5 3-5 5.46-5.63 0.985-0.00277 1.97-0.00553 2.99-0.00838 1.13-0.0153 2.26-0.0306 3.43-0.0463 1.24 0.00863 2.48 0.0173 3.76 0.0261 1.31-0.0105 2.61-0.021 3.96-0.0318 3.59-0.0282 7.17-0.0257 10.8-0.0177 3.75 0.00312 7.5-0.0219 11.2-0.044 7.1-0.0375 14.2-0.0496 21.3-0.0526 8.08-0.00469 16.2-0.0376 24.2-0.0729 16.6-0.072 33.2-0.108 49.9-0.122 1.55 3.1 1.13 6.36 1.12 9.76 8.54e-4 0.81 0.00171 1.62 0.00259 2.46 0.00165 2.73-0.00387 5.46-0.00932 8.19-2.82e-4 1.95-1.24e-4 3.9 4.43e-4 5.85 2.88e-4 5.31-0.00561 10.6-0.0126 15.9-0.00624 5.54-0.00684 11.1-0.00803 16.6-0.00311 10.5-0.0113 21-0.0213 31.5-0.0112 12-0.0167 23.9-0.0217 35.9-0.0105 24.6-0.0281 49.2-0.0503 73.8-59 0.112-118 0.224-177 0.328-0.873 0.00155-1.75 0.0031-2.64 0.00469-19 0.0336-37.9 0.067-56.9 0.1-9.3 0.0163-18.6 0.0326-27.9 0.0489-0.926 0.00163-1.85 0.00325-2.8 0.00493-30 0.0527-60 0.109-90 0.166-30.8 0.0593-61.7 0.115-92.5 0.167-4.35 0.00731-8.71 0.0147-13.1 0.022-0.857 0.00145-1.71 0.0029-2.6 0.0044-13.8 0.0235-27.6 0.0504-41.4 0.0787-13.9 0.0283-27.7 0.053-41.6 0.0739-8.24 0.0125-16.5 0.0279-24.7 0.0473-6.15 0.0142-12.3 0.0231-18.5 0.0299-2.49 0.00359-4.98 0.0089-7.47 0.0161-3.38 0.00952-6.76 0.0128-10.1 0.0145-0.971 0.00423-1.94 0.00846-2.94 0.0128-15.7-0.0141-15.7-0.0141-17.8-2.12-0.1-1.51-0.131-3.03-0.134-4.55-0.00426-0.983-0.00853-1.97-0.0129-2.98 4.53e-4 -1.09 9.06e-4 -2.17 0.00137-3.29-0.00336-1.14-0.00672-2.28-0.0102-3.45-0.00954-3.78-0.0115-7.57-0.0125-11.4-0.00321-2.62-0.00657-5.23-0.0101-7.85-0.0064-5.49-0.00788-11-0.00725-16.5 6.01e-4 -6.36-0.00995-12.7-0.0257-19.1-0.0146-6.11-0.0182-12.2-0.0176-18.3-0.00118-2.6-0.00563-5.2-0.0133-7.81-0.00974-3.63-0.00694-7.26-8.95e-4 -10.9-0.00562-1.09-0.0112-2.17-0.017-3.29 0.00419-0.986 0.00839-1.97 0.0127-2.99-5.45e-4 -0.86-0.00109-1.72-0.00165-2.61 0.249-2.07 0.249-2.07 2.25-4.07 2.52-0.241 2.52-0.241 5.73-0.227 1.22 2.42e-4 2.44 4.83e-4 3.69 7.32e-4 1.29 0.0102 2.57 0.0205 3.89 0.031 1.77 0.00302 1.77 0.00302 3.57 0.0061 2.6 0.00617 5.19 0.0174 7.79 0.0331 6.99 0.0419 14 0.0685 21 0.0971 1.4 0.00576 2.79 0.0115 4.19 0.0173 3.39 0.014 6.77 0.0279 10.2 0.0417-0.0123-0.758-0.0246-1.52-0.0373-2.3-0.881-54.8-1.1-110-1.07-164 0.00735-11.4 0.00867-22.8 0.0098-34.2 0.00216-20.3 0.00873-40.7 0.0183-61 0.00926-19.7 0.0163-39.4 0.0205-59.1 2.63e-4 -1.23 5.25e-4 -2.45 7.96e-4 -3.71 0.00131-6.15 0.00257-12.3 0.00381-18.4 0.0103-50.6 0.0278-101 0.0503-152-0.749 0.00222-1.5 0.00444-2.27 0.00673-7.05 0.02-14.1 0.0352-21.1 0.0451-3.62 0.00523-7.25 0.0123-10.9 0.0236-3.49 0.0108-6.99 0.0168-10.5 0.0194-1.99 0.00276-3.98 0.0106-5.96 0.0184-1.2 7.55e-5 -2.4 1.51e-4 -3.64 2.29e-4 -1.6 0.00333-1.6 0.00333-3.22 0.00673-2.4-0.12-2.4-0.12-3.4-1.12-0.0997-1.37-0.131-2.75-0.134-4.13-0.00426-0.89-0.00853-1.78-0.0129-2.7 4.53e-4 -0.984 9.06e-4 -1.97 0.00137-2.98-0.00336-1.03-0.00672-2.06-0.0102-3.12-0.00954-3.43-0.0115-6.85-0.0125-10.3-0.00321-2.37-0.00657-4.74-0.0101-7.11-6e-3 -4.98-0.00784-9.95-0.00725-14.9 1.02e-4 -6.39-0.0136-12.8-0.0308-19.2-0.0111-4.9-0.0131-9.79-0.0126-14.7-0.00118-2.36-0.00563-4.71-0.0133-7.07-0.00975-3.29-0.00694-6.58-8.95e-4 -9.87-0.00562-0.982-0.0112-1.96-0.017-2.98 0.00419-0.893 0.00839-1.79 0.0127-2.71-5.45e-4 -0.779-0.00109-1.56-0.00165-2.36 0.374-2.86 1.47-3.8 4.3-4.15z" fill="#FDFDFD"/>
<path transform="translate(758 380)" d="m0 0c1.27-0.0104 2.55-0.0209 3.86-0.0316 1.41 0.00865 2.82 0.0177 4.24 0.027 1.5-0.00461 3-0.011 4.51-0.0189 4.13-0.0167 8.26-0.00843 12.4 0.00394 4.45 0.00904 8.91-0.00491 13.4-0.0159 8.72-0.0178 17.4-0.0139 26.2-0.00235 7.09 0.00903 14.2 0.0103 21.3 0.0059 1.01-6.13e-4 2.02-0.00123 3.05-0.00186 2.05-0.00128 4.1-0.00258 6.14-0.00389 19.2-0.0114 38.4 0.00172 57.6 0.0232 16.5 0.0179 33 0.0148 49.5-0.00368 19.1-0.0214 38.3-0.0298 57.4-0.0176 2.04 0.00127 4.08 0.00253 6.12 0.00377 1 6.17e-4 2.01 0.00123 3.04 0.00187 7.08 0.00346 14.2-0.00238 21.2-0.0118 8.63-0.0112 17.3-0.00821 25.9 0.0131 4.4 0.0105 8.81 0.0146 13.2 0.0014 4.03-0.0119 8.06-0.00541 12.1 0.0159 1.46 0.00448 2.92 0.00217 4.38-0.0075 1.98-0.0121 3.96 0.00268 5.94 0.0189 1.1 6.49e-4 2.2 0.0013 3.34 0.00197 5.11 0.87 8.03 4.38 11.2 8.25 2.57 3.02 5.25 5.66 8.25 8.25 3.47 3.01 6.45 6.15 9.41 9.66 3.29 3.7 6.84 7.14 10.4 10.6 2.6 2.56 5.08 5.13 7.39 7.95 1.86 2.24 3.57 4.04 5.82 5.86 4.56 3.71 8.53 7.92 12.4 12.3 4.18 4.66 8.41 8.97 13.2 13 4.23 3.78 7.75 8.28 11.3 12.7 2.63 3.02 5.42 5.5 8.5 8.03 7.3 6.75 7.3 6.75 7.66 12.2 0.0144 1.66 0.00144 3.31-0.0336 4.97 7.3e-4 0.908 0.00146 1.82 0.00221 2.75-0.00347 2.99-0.0423 5.97-0.0816 8.96-0.00933 2.08-0.0164 4.15-0.0214 6.23-0.0191 5.45-0.0681 10.9-0.124 16.4-0.0512 5.57-0.074 11.1-0.0992 16.7-0.0536 10.9-0.139 21.8-0.244 32.8-20.2 0.0233-40.4 0.041-60.6 0.0518-9.37 0.00516-18.7 0.0122-28.1 0.0236-8.17 0.00995-16.3 0.0164-24.5 0.0186-4.33 0.00131-8.66 0.00439-13 0.0116-4.07 0.00676-8.14 0.00889-12.2 0.00738-1.5 2.76e-4 -3 0.00228-4.49 0.0061-2.04 0.00493-4.07 0.00319-6.11 0.00105-1.14 9.22e-4 -2.28 0.00184-3.46 0.00279-2.54-0.123-2.54-0.123-3.54-1.12-0.0737-2.79-0.0881-5.56-0.0703-8.35-0.00859-1.74-0.0191-3.48-0.0312-5.21-0.0166-2.74-0.0236-5.48 0.00195-8.23 0.612-11.8 0.612-11.8-4.04-22-1.25-1.09-2.54-2.15-3.86-3.17-1.13-1.14-2.25-2.29-3.35-3.45-1.09-1.08-2.18-2.16-3.27-3.24-0.82-0.813-0.82-0.813-1.66-1.64-2.43-2.41-4.86-4.81-7.29-7.21-3.54-3.59-6.86-7.37-10.2-11.1-2.58-2.72-3.29-3.29-7.01-3.45-1.81 0.00333-1.81 0.00333-3.66 0.00673-0.672-1.49e-4 -1.34-2.98e-4 -2.04-4.51e-4 -2.27 6.98e-4 -4.53 0.00856-6.8 0.0163-1.62 0.00192-3.25 0.00338-4.87 0.00443-3.52 0.00318-7.04 0.00947-10.6 0.0181-5.67 0.0137-11.3 0.0195-17 0.0241-14.2 0.013-28.3 0.0368-42.5 0.0614-13.8 0.0237-27.5 0.0421-41.3 0.0521-1.46 0.00118-1.46 0.00118-2.95 0.00239-43.5 0.0327-87-0.436-131-1.06 0.777 2 0.777 2 2 4 2.31 0.75 4.65 1.41 7 2 2.32 1.07 4.61 2.2 6.88 3.38 6.11 3.13 12.3 5.99 18.6 8.68 0.812 0.352 1.62 0.704 2.46 1.07 1.1 0.468 1.1 0.468 2.21 0.945 1.85 0.93 1.85 0.93 3.85 2.93 0.193 2.42 0.261 4.73 0.241 7.15 0.00171 0.745 0.00342 1.49 0.00518 2.26 0.00331 2.51-0.00773 5.02-0.0186 7.53-5.64e-4 1.79-2.48e-4 3.59 8.85e-4 5.38 5.76e-4 4.88-0.0112 9.76-0.0251 14.6-0.0125 5.1-0.0137 10.2-0.0161 15.3-0.00622 9.65-0.0226 19.3-0.0427 29-0.0223 11-0.0333 22-0.0434 33-0.0209 22.6-0.0561 45.2-0.101 67.8-2.75 1.38-4.96 1.13-8.04 1.13-1.29 0.00282-2.58 0.00564-3.91 0.00854-1.44-0.00194-2.87-0.00399-4.31-0.00613-1.51 0.00135-3.01 0.00313-4.52 0.00531-4.1 0.00457-8.19 0.00279-12.3-3.79e-4 -4.28-0.00253-8.56-1.86e-4 -12.8 0.00139-7.19 0.00182-14.4-5.83e-4 -21.6-0.00534-8.32-0.00544-16.6-0.00368-25 0.00183-7.13 0.00453-14.3 0.00518-21.4 0.00256-4.27-0.00156-8.53-0.00176-12.8 0.00154-4.01 0.00288-8.02 9.04e-4 -12-0.00489-1.48-0.00133-2.95-9.33e-4 -4.43 0.00126-2.01 0.00271-4.01-0.00128-6.02-0.00568-1.69-5.66e-4 -1.69-5.66e-4 -3.41-0.00114-2.51-0.126-2.51-0.126-3.51-1.13-0.113-2.78-0.161-5.53-0.167-8.3-0.00869-1.32-0.00869-1.32-0.0176-2.67-0.0182-2.98-0.029-5.95-0.0397-8.93-0.0112-2.13-0.0227-4.25-0.0345-6.38-0.0366-7-0.0618-14-0.0846-21-0.00592-1.79-0.00592-1.79-0.012-3.61-0.0364-11.2-0.0679-22.4-0.0891-33.7-0.0276-14.4-0.0783-28.7-0.16-43.1-0.0558-10.1-0.0848-20.2-0.094-30.3-0.00626-6.03-0.0244-12.1-0.0714-18.1-0.0436-5.68-0.0542-11.4-0.0394-17-3.29e-4 -2.08-0.0126-4.16-0.0378-6.25-0.203-17.7-0.203-17.7 4.18-22.8 1.82-1.57 1.82-1.57 3.67-2.89 1.19-1.02 2.38-2.04 3.56-3.06 0.572-0.468 1.14-0.936 1.73-1.42 2.43-2.17 4.42-4.64 6.44-7.2 0.416-0.436 0.833-0.871 1.26-1.32h2c0.227-0.577 0.454-1.15 0.688-1.75 1.64-2.82 3.75-4.26 6.31-6.25 0.66-0.99 1.32-1.98 2-3h2c0.227-0.557 0.454-1.11 0.688-1.69 1.69-2.97 3.84-4.96 6.31-7.31 0.825-0.825 1.65-1.65 2.5-2.5 0.825-0.825 1.65-1.65 2.5-2.5 1.3-1.36 1.3-1.36 2.62-2.75 2.38-2.25 2.38-2.25 5.38-3.25 0.704-1.31 1.36-2.65 2-4 3.71-5.28 8.63-9.36 13.7-13.3 2.72-2.13 4.79-4.21 6.7-7.06 2.37-3.5 5.15-5.97 8.38-8.67 5.2-4.52 9.93-9.58 14.7-14.5 4.6-4.48 7.17-6.94 13.8-6.95z" fill="#FDFDFD"/>
<path transform="translate(651 866)" d="m0 0c1.69 8.17e-4 1.69 8.17e-4 3.41 0.00165 1.29-0.00419 2.58-0.00839 3.91-0.0127 1.44 0.00548 2.87 0.0112 4.31 0.017 1.51-0.00107 3.01-0.00301 4.52-0.00575 4.1-0.00486 8.19 0.00282 12.3 0.013 4.28 0.00876 8.56 0.00702 12.8 0.00664 7.19 9.37e-4 14.4 0.00963 21.6 0.0233 8.32 0.0157 16.6 0.021 25 0.0203 7.99-6.09e-4 16 0.00449 24 0.0128 3.41 0.00354 6.81 0.00536 10.2 0.00589 4.01 1e-3 8.02 0.00708 12 0.0172 1.48 0.00293 2.95 0.00415 4.43 0.00357 2.01-4.87e-4 4.01 0.00576 6.02 0.0124 1.12 0.00168 2.25 0.00335 3.41 0.00508 2.51 0.129 2.51 0.129 3.51 1.13 0.0933 2.7 0.122 5.38 0.11 8.08 5.43e-4 1.76 0.00113 3.51 0.00175 5.27-0.00143 0.937-0.00286 1.87-0.00433 2.84-0.00351 4.95 0.0223 9.89 0.0429 14.8 0.0243 6.3 0.0401 12.6 0.0247 18.9-0.0117 5.08 0.00577 10.2 0.0424 15.3 0.00861 1.94 0.00654 3.87-0.0065 5.81-0.0169 2.72 0.00334 5.43 0.0319 8.15-0.0138 0.796-0.0276 1.59-0.0418 2.41 0.11 5.42 1.58 8.15 5.33 12.1 1.65 1.56 3.28 3.1 5.05 4.53 3.7 3.15 7.12 6.5 10.5 9.95 0.539 0.544 1.08 1.09 1.63 1.65 2.24 2.27 4.48 4.54 6.71 6.82 1.65 1.68 3.31 3.36 4.97 5.03 0.501 0.515 1 1.03 1.52 1.56 4.36 4.39 7.07 6.07 13.3 6.14 0.697-0.00242 1.39-0.00483 2.11-0.00732 0.747 0.00524 1.49 0.0105 2.26 0.0159 2.5 0.015 5.01 0.0157 7.51 0.0164 1.8 0.00762 3.59 0.016 5.39 0.0252 4.88 0.022 9.76 0.0307 14.6 0.0358 3.05 0.00364 6.09 0.00988 9.14 0.017 10.6 0.0245 21.3 0.0375 31.9 0.0411 9.91 0.00364 19.8 0.0335 29.7 0.0754 8.51 0.0347 17 0.0501 25.5 0.0508 5.08 7.94e-4 10.2 0.00959 15.2 0.038 4.78 0.0261 9.56 0.0284 14.3 0.0123 1.75-0.00182 3.51 0.00492 5.26 0.0208 2.39 0.0204 4.79 0.00996 7.18-0.00821 1.04 0.0198 1.04 0.0198 2.11 0.04 3.84-0.0667 5.31-0.566 8.29-3.08 0.702-0.848 1.4-1.7 2.13-2.57 0.77-0.86 0.77-0.86 1.55-1.74 0.436-0.519 0.871-1.04 1.32-1.57 0.504-0.593 1.01-1.19 1.53-1.8 1.1-1.3 2.19-2.6 3.29-3.91 3.33-3.9 6.73-7.35 10.7-10.6 2.36-1.98 4.51-4.13 6.63-6.37 0.697-0.664 1.39-1.33 2.11-2.01 2.75-4.35 2.45-8.2 2.43-13.3 0.0118-0.987 0.0236-1.97 0.0357-2.99 0.0352-3.15 0.0444-6.29 0.0502-9.43 0.0163-3.16 0.0383-6.31 0.0716-9.47 0.0197-1.96 0.029-3.92 0.0269-5.89 0.00696-0.885 0.0139-1.77 0.0211-2.68 0.00126-0.78 0.00252-1.56 0.00381-2.36 0.252-1.92 0.252-1.92 2.25-3.92 2.65-0.249 2.65-0.249 6.08-0.247 1.3-0.00419 2.59-0.00839 3.93-0.0127 1.45 0.00548 2.89 0.0112 4.34 0.017 1.52-0.00107 3.03-0.00301 4.55-0.00575 4.12-0.00486 8.25 0.00282 12.4 0.013 4.31 0.00876 8.62 0.00702 12.9 0.00664 7.23 9.37e-4 14.5 0.00963 21.7 0.0233 8.38 0.0157 16.8 0.021 25.1 0.0203 8.04-6.09e-4 16.1 0.00449 24.1 0.0128 3.43 0.00354 6.86 0.00536 10.3 0.00589 4.03 1e-3 8.07 0.00708 12.1 0.0172 1.48 0.00293 2.97 0.00415 4.45 0.00357 2.02-4.87e-4 4.04 0.00576 6.05 0.0124 1.7 0.00251 1.7 0.00251 3.43 0.00508 2.52 0.129 2.52 0.129 3.52 1.13 0.133 2.91 0.2 5.8 0.225 8.71 0.0114 0.914 0.0228 1.83 0.0345 2.77 0.111 9.58 0.158 19.2 0.201 28.7 0.0223 4.55 0.064 9.09 0.123 13.6 0.0711 5.49 0.108 11 0.12 16.5 0.0104 2.09 0.0328 4.18 0.0676 6.27 0.0463 2.93 0.0482 5.86 0.0399 8.8 0.0236 0.858 0.0472 1.72 0.0715 2.6-0.0829 6.06-1.9 9.03-6.11 13.3-0.585 0.555-1.17 1.11-1.77 1.68l-2.75 2.75c-0.742 0.743-1.49 1.48-2.25 2.25-0.557 0.763-1.11 1.53-1.69 2.31-0.433 0.557-0.866 1.11-1.31 1.69h-2c-0.268 0.639-0.536 1.28-0.812 1.94-1.19 2.06-1.19 2.06-4.19 3.06-0.268 0.557-0.536 1.11-0.812 1.69-1.72 3.35-4.27 5.94-7.19 8.31h-2c-0.268 0.639-0.536 1.28-0.812 1.94-1.19 2.06-1.19 2.06-4.19 3.06-0.704 1.31-1.37 2.65-2 4-1.4 1.61-1.4 1.61-3.01 3.17-0.59 0.579-1.18 1.16-1.79 1.75-0.934 0.903-0.934 0.903-1.89 1.82-4.59 4.5-9.02 9-13.1 14-0.407 0.415-0.815 0.83-1.23 1.26h-2c-0.33 0.99-0.66 1.98-1 3h-2c-0.33 0.99-0.66 1.98-1 3-1.6 1.54-1.6 1.54-3.62 3.19-3.63 3.07-6.7 6.34-9.78 9.95-5.37 6.26-5.37 6.26-8.78 7.92-1.97 0.794-1.97 0.794-2.75 2.81-1.43 2.87-3.55 4.15-6.06 6.12-0.585 0.854-1.17 1.71-1.77 2.59-2.23 2.41-2.23 2.41-5.09 3.04-1.12 0.0019-2.24 0.00379-3.39 0.00575-1.29 0.0143-2.58 0.0285-3.91 0.0432-1.44-0.00943-2.87-0.0193-4.31-0.0297-1.52 0.00719-3.05 0.0166-4.57 0.0279-4.19 0.0248-8.39 0.0183-12.6 0.00665-4.52-0.00718-9.04 0.0143-13.6 0.0321-8.86 0.03-17.7 0.0326-26.6 0.025-7.2-0.00582-14.4-0.00264-21.6 0.00697-1.02 0.00134-2.05 0.00269-3.1 0.00407-2.08 0.00274-4.16 0.0055-6.24 0.00826-19.5 0.0246-39 0.017-58.6-5.7e-4 -17.9-0.0151-35.7 0.00908-53.6 0.052-18.3 0.0438-36.7 0.0616-55 0.0512-10.3-0.00541-20.6-6.52e-4 -30.9 0.031-8.77 0.0266-17.5 0.0287-26.3-8.61e-4 -4.47-0.0144-8.95-0.0176-13.4 0.00965-4.1 0.0247-8.19 0.0169-12.3-0.0165-1.48-0.00642-2.96-0.00107-4.44 0.0173-12.4 0.144-12.4 0.144-17.6-4.31-1.1-1.17-2.18-2.36-3.22-3.59-0.804-0.763-1.61-1.53-2.44-2.31-2.22-2.33-4.36-4.71-6.5-7.12-5.59-6.25-11.5-12.1-17.5-18-2.2-2.17-4.38-4.36-6.56-6.54-0.825-0.825-1.65-1.65-2.5-2.5-7.5-7.5-7.5-7.5-9.48-9.63-2.47-2.48-5.16-4.56-7.95-6.68-43.2-33-43.2-33-46.8-59.1-1.96-17-0.996-34.2 0.147-51.2 0.537-8.15 0.767-16.3 0.984-24.5 0.347-12.7 0.843-25.3 1.6-38 0.0682-1.24 0.136-2.47 0.207-3.75 0.0721-1.12 0.144-2.24 0.219-3.39 0.0605-0.976 0.121-1.95 0.183-2.96 0.565-3.44 1.57-4.24 5.01-4.56z" fill="#FDFDFD"/>
<path transform="translate(1045,891)" d="m0 0h197v3h-197v-3z"/>
<path transform="translate(822,945)" d="m0 0c4.09 1.53 6.12 4.44 8.7 7.79 8.95 11 17.8 21.1 32.5 22.8 8.47 0.713 17 0.467 25.4 0.143 4.65-0.15 9.3-0.151 14-0.171 7.78-0.0529 15.6-0.199 23.3-0.416 11-0.305 21.9-0.435 32.9-0.532 8.55-0.0818 17.1-0.209 25.7-0.345 0.913-0.0142 1.83-0.0283 2.77-0.0429 5.24-0.0843 10.5-0.192 15.7-0.334 1.58-0.0404 3.17-0.0744 4.75-0.101 2.16-0.0384 4.32-0.101 6.48-0.171 1.21-0.0301 2.42-0.0602 3.66-0.0912 3.73-0.663 5.46-1.99 8.18-4.56-1.2 2.49-2.45 4.68-4 7-2.9 0.383-2.9 0.383-6.7 0.394-0.696 0.00609-1.39 0.0122-2.11 0.0185-2.35 0.0167-4.69 0.0118-7.04 0.00705-1.68 0.00734-3.35 0.0159-5.03 0.0257-4.56 0.0223-9.13 0.0251-13.7 0.0233-3.81-1.19e-4 -7.61 0.00843-11.4 0.0168-8.98 0.0193-18 0.0221-26.9 0.0154-9.27-0.00664-18.5 0.0162-27.8 0.0533-7.95 0.0307-15.9 0.0421-23.9 0.0382-4.75-0.00207-9.51 0.00345-14.3 0.0279-4.47 0.0222-8.94 0.0204-13.4 7.25e-5 -1.64-0.00342-3.28 0.00171-4.92 0.016-2.24 0.0182-4.48 0.00548-6.72-0.0149-1.25 7.13e-4 -2.51 0.00143-3.8 0.00216-4.18-0.794-5.57-2.42-8.28-5.62l-2.5-2.5c-1.72-1.72-3.43-3.45-5.12-5.19-2.35-2.43-2.35-2.43-5.38-4.31v-3c-0.536-0.227-1.07-0.454-1.62-0.688-3.83-2.11-7.66-4.42-9.25-8.62-0.0412-0.557-0.0825-1.11-0.125-1.69z"/>
<path transform="translate(418,294)" d="m0 0h1v355h-1v-355z" fill="#E32129"/>
<path transform="translate(358,703)" d="m0 0h61v2c-4.71 0.937-9.26 1.12-14 1.06-1.16-0.00568-1.16-0.00568-2.33-0.0115-3.26-0.0161-6.52-0.0438-9.78-0.0715-11.7-0.0903-23.2 0.24-34.8 1.02v-4z"/>
<path transform="translate(822,702)" d="m0 0c13.4 0.495 13.4 0.495 27 1v2c-8.82 0.939-17.2 0.939-26 0-0.33-0.99-0.66-1.98-1-3z"/>
<path transform="translate(681,219)" d="m0 0h1v8h-1v-8z"/>
<path transform="translate(1241,908)" d="m0 0h1v6h-1v-6z"/>
</svg>
